<svg xmlns="http://www.w3.org/2000/svg" width="239.41" height="85.37" viewBox="0 0 239.41 85.37"><defs><style>.cls-1{fill:#fff;}</style></defs><title>logo</title><g id="Layer_2" data-name="Layer 2"><g id="ARTWORK"><path class="cls-1" d="M239.32,13.93c-.15-.28-.31-.57-.44-.86a2,2,0,0,0-.78-.91c-.33-.2-.64-.42-1-.62a13.81,13.81,0,0,0-2.62-1.13,29.83,29.83,0,0,0-4.37-1c-1.27-.22-2.56-.41-3.84-.57l-1.21-.17c-.58-.07-1.16-.15-1.74-.21L221,8.24c-1.39-.13-2.78-.2-4.18-.26-1.84-.07-3.69-.12-5.53-.16-1,0-2.06,0-3.1,0-1.56,0-3.12,0-4.68.08L201.07,8h-.19l-1.81.16c-.81.08-1.61.16-2.42.26s-1.8.27-2.7.4c-1.06.15-2.12.34-3.16.59a18.7,18.7,0,0,0-3.18,1,10.14,10.14,0,0,0-2.38,1.44,6.92,6.92,0,0,0-2.07,2.88,8.18,8.18,0,0,0-.46,1.94l-.09,1a1.21,1.21,0,0,1,0,.19c0,.09,0,.14-.09.13s-.09,0-.11,0c-.24-.25-.48-.49-.7-.75A7.79,7.79,0,0,0,180.27,16L179,15a1.65,1.65,0,0,0-.37-.2c-.7-.27-1.39-.55-2.09-.81a15.28,15.28,0,0,0-1.86-.56,15.89,15.89,0,0,0-3.08-.35,17,17,0,0,0-2.85.13,14.8,14.8,0,0,0-3.47.85,12,12,0,0,0-5,3.54,10.1,10.1,0,0,0-2,3.78,12.82,12.82,0,0,0-.44,2.75,16.68,16.68,0,0,0,.29,4.11,10.64,10.64,0,0,0,2.45,5.08c.12.14.24.28.37.41A28.67,28.67,0,0,0,164.4,37c1.08.84,2.19,1.67,3.35,2.42a20.74,20.74,0,0,1,1.73,1.22,9.27,9.27,0,0,1,1,1,4.29,4.29,0,0,1,1.13,3.05,4.37,4.37,0,0,1-1.29,3.06,5.19,5.19,0,0,1-1.74,1.19,6.88,6.88,0,0,1-4.64.29,7.58,7.58,0,0,1-3.62-2.24.78.78,0,0,1-.23-.54c0-.26,0-.53,0-.79a4.68,4.68,0,0,0-.25-1.18,3.5,3.5,0,0,0-1.5-1.86,1.28,1.28,0,0,0-.5-.2,5,5,0,0,0-2.11,0,3.13,3.13,0,0,0-2.35,2.16,2.77,2.77,0,0,0-.12.41,6.68,6.68,0,0,0,0,3,6.84,6.84,0,0,0,1.31,2.71,9.3,9.3,0,0,0,1.8,1.8,13.69,13.69,0,0,0,6,2.55c.52.09,1.05.13,1.57.18a17.26,17.26,0,0,0,4-.08,14.57,14.57,0,0,0,2.54-.56A15.53,15.53,0,0,0,175,52.27a6.8,6.8,0,0,0,1.24-1.16,8.89,8.89,0,0,0,.93-1.34,11.68,11.68,0,0,0,1.46-7,8.77,8.77,0,0,0-1.69-4.42,9.88,9.88,0,0,0-.76-1,15.6,15.6,0,0,0-2.33-2.12c-.78-.59-1.58-1.15-2.37-1.71s-1.68-1.2-2.51-1.81a16.12,16.12,0,0,1-2-1.7,11.3,11.3,0,0,1-1.44-1.73,2.42,2.42,0,0,1-.34-.77,10.17,10.17,0,0,1-.27-1.56,10.4,10.4,0,0,1,.24-3.38,5.7,5.7,0,0,1,.59-1.58,3,3,0,0,1,1-1.08,5.65,5.65,0,0,1,1.29-.67,7.92,7.92,0,0,1,2.5-.44,9.8,9.8,0,0,1,1.33.1,9.46,9.46,0,0,1,2.9.88A5.44,5.44,0,0,1,177.07,22c.16.28.34.55.52.82a3,3,0,0,0,.57.62.81.81,0,0,0,.38.19c.14,0,.28.07.42.09a6.46,6.46,0,0,0,1.39,0,3.55,3.55,0,0,0,1.39-.41,2.12,2.12,0,0,0,1-1.22c.06-.15.1-.3.15-.45a.22.22,0,0,1,.22.06c.23.2.46.4.7.59a2.06,2.06,0,0,0,.86.43,3.21,3.21,0,0,0,3.12-.91,4.26,4.26,0,0,0,.53-.66,5.79,5.79,0,0,0,.63-1.24,13.53,13.53,0,0,0,.65-2.34c.07-.36.1-.72.2-1.07a3.29,3.29,0,0,1,.33-.16c.42-.16.84-.32,1.26-.45a34.06,34.06,0,0,1,6.77-1.39l1.33-.14c.64-.06,1.29-.13,1.94-.16,1.11-.05,2.22-.12,3.34-.12.24,0,.48,0,.72,0l1.95,0a1,1,0,0,1,.24,0,.13.13,0,0,1,.07.09q0,.3,0,.6c0,1.3,0,2.6,0,3.89,0,1.95.06,3.89.09,5.83,0,1,0,2,.05,3V32c0,.65,0,1.3,0,1.95,0,1.07,0,2.14.08,3.22a21,21,0,0,1-.08,2.24,5.86,5.86,0,0,1-.34,1.6c-.11.32-.24.64-.38,1a24.2,24.2,0,0,1-2.82,4.88,35.68,35.68,0,0,1-3.8,4.34c-1.51,1.5-3.1,2.92-4.69,4.33a2.82,2.82,0,0,1-.39.29,17.8,17.8,0,0,0-2,1.38c-.59.45-1.19.9-1.83,1.3s-1,.67-1.53,1a114.32,114.32,0,0,1-13,7.11c-2.66,1.24-5.35,2.41-8.11,3.42-3.65,1.33-7.35,2.52-11.08,3.6-2.8.81-5.63,1.53-8.47,2.16-2.25.49-4.52.94-6.8,1.31-1.35.22-2.72.43-4.08.61-1.1.15-2.21.26-3.32.38l-1.27.13-1.87.16-2.13.13c-1,.06-2,.12-3,.15-1.34,0-2.67.06-4,.06-1.18,0-2.35,0-3.53-.07-.7,0-1.41-.06-2.12-.11l-3.09-.19-.18,0L112,78.12c-.56-.06-1.13-.11-1.69-.19-1.08-.15-2.17-.29-3.25-.47s-2.19-.38-3.28-.6c-1.59-.32-3.16-.69-4.73-1.11a71.49,71.49,0,0,1-9.76-3.33,61.63,61.63,0,0,1-11.45-6.36A55.56,55.56,0,0,1,69,58.39,56.47,56.47,0,0,1,59.9,45.12c-.07-.15-.14-.29-.2-.44a.27.27,0,0,1,0-.12h.48c.39,0,.77,0,1.16,0A3.85,3.85,0,0,0,63.19,44a2.86,2.86,0,0,0,1.37-2.25,4.73,4.73,0,0,0-.14-1.63,1.64,1.64,0,0,0-.36-.69,2.84,2.84,0,0,0-1.41-.91,5.74,5.74,0,0,0-1.49-.25,19.25,19.25,0,0,0-2,0c-.82,0-1.66,0-2.49.07a.63.63,0,0,1-.43-.09c-.08-.16-.18-.33-.27-.51l-1.93-4Q52,29.51,50.12,25.18C48.3,21,46.64,16.67,45.2,12.31c-.38-1.14-.72-2.28-1-3.44a30,30,0,0,1-.66-3.77c-.07-.58-.14-1.17-.24-1.74a9.37,9.37,0,0,0-.39-1.47A2.67,2.67,0,0,0,41.48.38,4.16,4.16,0,0,0,39.17,0a3.34,3.34,0,0,0-1.53.53,2.31,2.31,0,0,0-1,1.38,5.12,5.12,0,0,0-.1.54,19.79,19.79,0,0,1-.39,2.15c-.16.59-.29,1.18-.43,1.77-.1.39-.19.79-.3,1.18a19.75,19.75,0,0,1-1.5,3.77c-.66,1.3-1.4,2.56-2.13,3.82a43.94,43.94,0,0,1-3.34,5C27,22,25.54,23.89,24.06,25.72s-2.78,3.33-4.17,5l-.17.18a.21.21,0,0,1-.21.08,1.45,1.45,0,0,1-.3-.06c-.38-.13-.77-.25-1.15-.41-.55-.23-1.1-.5-1.65-.75s-1.1-.51-1.66-.75a8.43,8.43,0,0,0-2.46-.64,2.88,2.88,0,0,0-1.71.29,3.48,3.48,0,0,0-1.64,1.88,2.18,2.18,0,0,0,.14,1.88,4,4,0,0,0,.67.86,6.37,6.37,0,0,0,1,.74,10.21,10.21,0,0,0,1.39.73c.61.27,1.23.52,1.85.78l.6.28s.08.12,0,.15a3.64,3.64,0,0,1-.34.34A74.61,74.61,0,0,1,8.43,41c-2.08,1.52-4.21,3-6.36,4.38a2.62,2.62,0,0,0-.89.8,3.7,3.7,0,0,1-.33.36,2.76,2.76,0,0,0-.61.9.35.35,0,0,1-.23.18v1c.08,0,.17,0,.21.08s.09.19.13.28a6.59,6.59,0,0,0,.34.57,2.86,2.86,0,0,0,2.23,1.3,5.89,5.89,0,0,0,2.28-.28,11,11,0,0,0,2.1-.94,48.26,48.26,0,0,0,4.51-2.86c1.34-1,2.63-2,3.88-3l4.1-3.53c.29-.25.56-.53.85-.78s.43-.37.65-.55a2.22,2.22,0,0,1,.37-.21.37.37,0,0,1,.29,0,4.19,4.19,0,0,1,.46.16c.84.36,1.71.63,2.57.91,2.53.8,5.08,1.53,7.65,2.16,1.48.36,3,.7,4.45,1,.86.16,1.71.34,2.57.47,1.06.17,2.11.35,3.18.47s2,.25,3,.35c.8.08,1.61.13,2.42.2,1,.08,2,.15,3,.17a.38.38,0,0,1,.38.24l.15.27c1.43,2.75,2.94,5.45,4.45,8.16a41.08,41.08,0,0,0,4,5.8A66.2,66.2,0,0,0,73.84,71.57,69.72,69.72,0,0,0,87.74,79a80.36,80.36,0,0,0,8.39,2.84c1.52.43,3.05.8,4.6,1.13,1.22.27,2.45.51,3.69.73,1,.17,1.92.31,2.88.46.8.12,1.6.24,2.4.34.54.08,1.09.13,1.63.19l1.93.21.61.06,1.81.19a1.61,1.61,0,0,1,.29.09l10.7.15a.29.29,0,0,1,.21-.09c.55,0,1.09-.11,1.64-.14.85,0,1.7-.1,2.55-.15l.3,0c1.17-.08,2.35-.14,3.52-.24s2.45-.23,3.68-.38c1.47-.18,2.93-.38,4.39-.61A140.5,140.5,0,0,0,163.1,79c4.31-1.34,8.57-2.82,12.76-4.51a111.07,111.07,0,0,0,12.65-6,91.42,91.42,0,0,0,11.88-7.9c1.86-1.47,3.66-3,5.38-4.65l.84-.79a.15.15,0,0,1,.11,0,.16.16,0,0,1,.07.09.55.55,0,0,1,0,.18,21.41,21.41,0,0,1-.31,3.2,4.57,4.57,0,0,0,.47,3.18,3.8,3.8,0,0,0,.73,1,3.1,3.1,0,0,0,1.95.89,2.92,2.92,0,0,0,.72-.06,3.77,3.77,0,0,0,1.67-.68,2.87,2.87,0,0,0,.79-.91,5.23,5.23,0,0,0,.52-1.36c.09-.44.18-.87.24-1.32s.12-1,.18-1.57.11-.88.16-1.32c.08-.73.17-1.45.21-2.18.09-1.23.13-2.47.22-3.7.11-1.76.16-3.52.23-5.28.1-2.78.15-5.55.16-8.33,0-.63,0-1.25,0-1.88v-7c0-1.42,0-2.84,0-4.25,0-1.93,0-3.85,0-5.78v-3.4a1,1,0,0,1,0-.24s.05-.08.08-.08a.65.65,0,0,1,.24,0l2.12.21.12,0,2.79.19,2.84.23,1.94.19c.66.07,1.33.15,2,.24l1.92.3c.88.15,1.74.36,2.6.59a8.51,8.51,0,0,1,1.3.5l1.32.62a6.59,6.59,0,0,0,1.43.51,2.85,2.85,0,0,0,2.37-.44,3.86,3.86,0,0,0,1.53-2c0-.05.08-.09.11-.13l0-1.34A.31.31,0,0,1,239.32,13.93ZM48.06,38.11a.55.55,0,0,1-.18,0l-.72-.07c-.89-.06-1.78-.15-2.66-.27s-1.65-.2-2.47-.33c-1.34-.21-2.67-.45-4-.72a96.83,96.83,0,0,1-11.07-3,5.21,5.21,0,0,1-.5-.2.12.12,0,0,1,0-.1,3.15,3.15,0,0,1,.22-.29c.87-1,1.75-2.08,2.6-3.13a80.06,80.06,0,0,0,7-10.1c.79-1.35,1.52-2.73,2.21-4.12l.25-.49c0-.05.13-.1.16-.08a.6.6,0,0,1,.08.08c.07.17.13.34.19.51q1.23,3.72,2.64,7.38,2.52,6.57,5.53,13l.75,1.6a2.33,2.33,0,0,1,.11.28A.13.13,0,0,1,48.06,38.11Z"/><path class="cls-1" d="M102.31,49.56l.32.44a9.73,9.73,0,0,0,1.89,1.79,14.28,14.28,0,0,0,5.83,2.45,18.89,18.89,0,0,0,2.93.27,20.19,20.19,0,0,0,3.78-.29A13.25,13.25,0,0,0,120.84,53a10.51,10.51,0,0,0,5.39-6.64,14.86,14.86,0,0,0,.51-3.18,3,3,0,0,0,0-.6,11,11,0,0,0-1.57-4.43A12.1,12.1,0,0,0,123.45,36a22.29,22.29,0,0,0-2.4-2c-1.3-1-2.61-1.92-4-2.84-.49-.35-1-.72-1.46-1.09a9.76,9.76,0,0,1-1.31-1.26,5.82,5.82,0,0,1-1.22-2.35,9.82,9.82,0,0,1-.22-1.32,8.72,8.72,0,0,1,.33-3.48,5.38,5.38,0,0,1,.55-1.28,1.4,1.4,0,0,1,.3-.38,8.09,8.09,0,0,1,1.84-1.28,4.65,4.65,0,0,1,1.26-.41,9.62,9.62,0,0,1,4.1.2,6.52,6.52,0,0,1,3.14,1.86,2.13,2.13,0,0,1,.36.49l.31.59c.13.23.25.47.38.69a1.88,1.88,0,0,0,.92.77,2.78,2.78,0,0,0,1.24.24,4.76,4.76,0,0,0,2.21-.58,2.34,2.34,0,0,0,1.24-1.77c0-.14,0-.28,0-.43a5.45,5.45,0,0,0-.31-2,5.17,5.17,0,0,0-1.32-2.15c-.26-.25-.53-.49-.82-.72a13.07,13.07,0,0,0-2.52-1.56,15.53,15.53,0,0,0-6.46-1.51,18.84,18.84,0,0,0-3.75.28,13.52,13.52,0,0,0-4,1.33,11.22,11.22,0,0,0-5,5.17,12.9,12.9,0,0,0-1.08,3.41,6.85,6.85,0,0,0-.12,1.75,12.85,12.85,0,0,1,0,1.52,1.08,1.08,0,0,0,0,.36,7.22,7.22,0,0,1,.35,1.66,5.31,5.31,0,0,0,.28,1.11,12.48,12.48,0,0,0,2.09,3.62,20.81,20.81,0,0,0,2.64,2.67c1,.85,2,1.63,3.07,2.39l2.79,2a10.92,10.92,0,0,1,1.16,1,5.82,5.82,0,0,1,1.2,1.67,3.68,3.68,0,0,1,.15,2.67,5,5,0,0,1-1.92,2.59,5.87,5.87,0,0,1-2.94,1,7.81,7.81,0,0,1-2.36-.15,7.58,7.58,0,0,1-3-1.32,5.11,5.11,0,0,1-1-1,.78.78,0,0,1-.18-.44,12.84,12.84,0,0,0-.46-2.62.48.48,0,0,0-.12-.22c-.3-.3-.6-.6-.91-.88a1.65,1.65,0,0,0-.7-.35,4.17,4.17,0,0,0-1.45-.1,3.85,3.85,0,0,0-2,.7,2.67,2.67,0,0,0-1.08,1.49,4.39,4.39,0,0,0-.19,1c0,.53,0,1.06,0,1.58A5.92,5.92,0,0,0,102.31,49.56Z"/><path class="cls-1" d="M69.8,48.77a6.55,6.55,0,0,0,.32.58.55.55,0,0,0,.17.17,1.22,1.22,0,0,1,.56.54,2.43,2.43,0,0,0,.51.6c.24.22.48.43.74.63A11.9,11.9,0,0,0,75.22,53a16.74,16.74,0,0,0,4.79,1,18.86,18.86,0,0,0,4.18-.15,13.73,13.73,0,0,0,5-1.77,11.32,11.32,0,0,0,2.51-2,9.49,9.49,0,0,0,2.55-5.33,11.8,11.8,0,0,0,0-3.46,9.45,9.45,0,0,0-1.31-3.56,13.84,13.84,0,0,0-1.47-1.93c-.11-.12-.22-.24-.34-.35-.4-.34-.8-.69-1.22-1l-3-2.26c-1-.75-2-1.5-3-2.31-.71-.6-1.4-1.23-2.05-1.9a3.57,3.57,0,0,1-.73-1.11,5.15,5.15,0,0,1-.3-.86,9,9,0,0,1,0-4.5,6.74,6.74,0,0,1,.45-1.26A3.94,3.94,0,0,1,83,18.48a5.46,5.46,0,0,1,.78-.35,7.07,7.07,0,0,1,2.5-.43,8.82,8.82,0,0,1,2.4.29,7.76,7.76,0,0,1,2.6,1.14,4.68,4.68,0,0,1,.92.8,1.64,1.64,0,0,1,.32.5,3.55,3.55,0,0,0,.49.84c.18.24.36.49.52.74a.64.64,0,0,0,.32.27l.4.14a4.29,4.29,0,0,0,1.51.14,4.8,4.8,0,0,0,1.82-.43,1.6,1.6,0,0,0,.66-.52,2.66,2.66,0,0,0,.4-.74,3.54,3.54,0,0,0,.22-1.43A5.38,5.38,0,0,0,97.45,16a9.06,9.06,0,0,0-1.12-1,14.92,14.92,0,0,0-3.1-1.78,16.12,16.12,0,0,0-3.19-1,20.89,20.89,0,0,0-3-.28c-.85,0-1.72,0-2.58.14a15.28,15.28,0,0,0-3.2.72,11.65,11.65,0,0,0-3.79,2.13,11.1,11.1,0,0,0-3.4,5.22A15.15,15.15,0,0,0,73.51,23a17.12,17.12,0,0,0,0,3.28,2,2,0,0,0,.08.35,14.22,14.22,0,0,0,3.17,6.08,22.37,22.37,0,0,0,2.62,2.53c1.3,1.06,2.67,2,4,3,.52.37,1,.73,1.53,1.1a8.4,8.4,0,0,1,1.13,1,5.31,5.31,0,0,1,1,1.46,2.31,2.31,0,0,1,.22,1c0,.46,0,.93,0,1.4a1.86,1.86,0,0,1-.25.86,5.66,5.66,0,0,1-2.41,2.41,6.52,6.52,0,0,1-4.84.51,7.88,7.88,0,0,1-3.83-2.56.45.45,0,0,1-.12-.27c0-.34,0-.69-.08-1a5.34,5.34,0,0,0-.36-1.53,2.44,2.44,0,0,0-2.13-1.57,4.79,4.79,0,0,0-3.33.89,1.7,1.7,0,0,0-.64.85,6.36,6.36,0,0,0-.34,1.67A7,7,0,0,0,69,46,9,9,0,0,0,69.8,48.77Z"/><path class="cls-1" d="M136.88,51.69a3.3,3.3,0,0,0,1.18.85,4.87,4.87,0,0,0,2.8.26,2,2,0,0,0,1-.54,4.73,4.73,0,0,0,.7-.84c.19-.29.36-.59.54-.88a1.92,1.92,0,0,0,.25-.61,49.45,49.45,0,0,0,1-5.24c.13-.86.23-1.73.32-2.59.13-1.21.26-2.42.36-3.63.12-1.56.22-3.11.31-4.67.09-1.72.16-3.44.24-5.16h0l.15-3,.15-3.46c0-.81.06-1.62.08-2.43a10.47,10.47,0,0,0-.1-1.94,4.93,4.93,0,0,0-.46-1.5,2.25,2.25,0,0,0-1.71-1.23,4.58,4.58,0,0,0-2.05.12,3.07,3.07,0,0,0-1.73,1.26,5.83,5.83,0,0,0-.39.69,6.56,6.56,0,0,0-.48,1.5,14.63,14.63,0,0,0-.29,2.29c0,.87-.1,1.73-.08,2.61s0,1.78.06,2.67c.06,1.32.09,2.63.07,3.95,0,.56,0,1.13-.06,1.7-.05,1.15-.1,2.3-.13,3.46,0,1.44-.07,2.87-.22,4.3-.1.87-.21,1.73-.35,2.59s-.3,1.72-.47,2.57a32.48,32.48,0,0,1-1,4,9.11,9.11,0,0,0-.27,1.12,2,2,0,0,0,0,.73A2.38,2.38,0,0,0,136.88,51.69Z"/><path class="cls-1" d="M138.18,7.45a2.17,2.17,0,0,1,.3.85,2.26,2.26,0,0,0,.66,1.21,4.27,4.27,0,0,0,1.5,1,6.26,6.26,0,0,0,2.42.48c.31,0,.61,0,.91-.05a5.11,5.11,0,0,0,1.91-.58,2.33,2.33,0,0,0,1.4-1.58,6,6,0,0,0,.28-3.41,4.26,4.26,0,0,0-.41-1.2,2.41,2.41,0,0,0-.56-.71,4.83,4.83,0,0,0-2.24-1,5.78,5.78,0,0,0-2,0,5.58,5.58,0,0,0-2.46,1A4.17,4.17,0,0,0,138.09,7,1,1,0,0,0,138.18,7.45Z"/><path class="cls-1" d="M158.94,64.73c-.09,1-.17,1.9-.25,2.85l0,.48a.19.19,0,0,0,.17.21l.24,0,2.49,0a23.81,23.81,0,0,0,2.67-.07,6.64,6.64,0,0,0,1.25-.2,7.59,7.59,0,0,0,.93-.27,3.88,3.88,0,0,0,2.13-1.89,6.2,6.2,0,0,0,.67-3.17,5,5,0,0,0-.14-1.08,3.28,3.28,0,0,0-1.82-2.22,6.59,6.59,0,0,0-1.62-.49,11.59,11.59,0,0,0-2.12-.17l-3.34,0h-.72c-.15,0-.22.08-.23.23a1.93,1.93,0,0,0,0,.24c0,.36,0,.73,0,1.09C159.11,61.79,159.08,63.26,158.94,64.73ZM161,66c.07-.71.14-1.42.2-2.12.1-1,.23-2.06.23-3.09a3,3,0,0,1,0-.42s0-.07.08-.09a.35.35,0,0,1,.11,0,12.19,12.19,0,0,1,2.49,0,4.24,4.24,0,0,1,1.11.3,2.29,2.29,0,0,1,1.43,1.62,4.08,4.08,0,0,1,0,2.22,3.21,3.21,0,0,1-1.38,1.79,4.44,4.44,0,0,1-1.52.6,7.25,7.25,0,0,1-2.18.09,1.27,1.27,0,0,1-.53-.14.85.85,0,0,1,0-.17C161,66.35,161,66.15,161,66Z"/><path class="cls-1" d="M96.72,57.86h-.06s-.1.08-.11.13a2.85,2.85,0,0,0,0,.42c0,.34,0,.69,0,1l-.12,3.15c-.08,1.1-.17,2.19-.29,3.27,0,.44-.09.89-.13,1.33a.18.18,0,0,0,.18.2c.46,0,.93,0,1.4,0,1.07,0,.9.15.93-.93,0-.59,0-1.17,0-1.76a11.76,11.76,0,0,1,.15-1.33.22.22,0,0,1,.21-.18h1.46l2.55,0c.22,0,.44,0,.66,0a.63.63,0,0,1,.23.08.11.11,0,0,1,.07.08,2.94,2.94,0,0,1,0,.42c0,.49-.08,1-.1,1.46a17.17,17.17,0,0,1-.13,1.75c0,.06,0,.12,0,.19a.18.18,0,0,0,.17.2l.67,0h1.4c.29,0,.34,0,.34-.36v-.24c0-.87,0-1.74,0-2.61,0-.61.07-1.22.1-1.82l.06-.85c.07-1.07.14-2.14.2-3.21a1.08,1.08,0,0,0,0-.31.21.21,0,0,0-.11-.12.36.36,0,0,0-.18,0l-1.88,0a.53.53,0,0,0-.18,0s-.11.07-.12.12a1,1,0,0,0,0,.3v1.39c0,.43,0,.85,0,1.28a1.38,1.38,0,0,1-.09.53.19.19,0,0,1-.14.11h-.12l-3.76,0-.85-.05a.49.49,0,0,1-.17-.06.11.11,0,0,1-.07-.08.65.65,0,0,1,0-.24c0-.32.09-.64.11-1,0-.72.08-1.45.11-2.18a.18.18,0,0,0-.17-.2Q97.79,57.86,96.72,57.86Z"/><path class="cls-1" d="M111.22,59.68a.2.2,0,0,1,.17-.15h.48l3.83,0h.55a.52.52,0,0,0,.16-.06c0-.28.1-.56.14-.84a2.17,2.17,0,0,0,0-.36.19.19,0,0,0-.15-.17l-.37,0-6.8-.1-.36,0a.17.17,0,0,0-.15.16,1.09,1.09,0,0,0,0,.18c0,2.13-.13,4.25-.29,6.37l-.18,2.43c0,.06,0,.12,0,.18a.21.21,0,0,0,.19.2l.3,0,6.62.09c.47,0,.5,0,.52-.5,0-.24.06-.48.09-.72a1.51,1.51,0,0,0,0-.3.18.18,0,0,0-.08-.09.55.55,0,0,0-.18,0l-2.37.12a12,12,0,0,1-2.24-.08c-.27,0-.31-.08-.31-.34a.56.56,0,0,1,0-.13c0-.64.11-1.28.16-1.93a.15.15,0,0,1,.12-.12,1.53,1.53,0,0,1,.3,0l1.64,0c.47,0,.93,0,1.4,0,.3,0,.61,0,.91,0a.2.2,0,0,0,.21-.17,6.11,6.11,0,0,0,.08-1.21.22.22,0,0,0-.19-.2,17.19,17.19,0,0,0-1.76,0l-.91,0a7.06,7.06,0,0,1-1.45-.14.26.26,0,0,1-.24-.3c0-.49,0-1,.07-1.46A2.46,2.46,0,0,1,111.22,59.68Z"/><path class="cls-1" d="M141.79,58.48h-.42c-.23,0-.3.06-.31.27s0,.28,0,.42c0,1.5-.1,3-.2,4.5,0,.5-.07,1-.11,1.51l-.18,2.12,0,.42a.62.62,0,0,0,0,.13c0,.06.08.16.14.16l.49,0,6.38.09H148a.21.21,0,0,0,.24-.21c0-.38,0-.77,0-1.15a.17.17,0,0,0-.14-.17l-.24,0c-.83,0-1.66,0-2.49,0a8.35,8.35,0,0,1-2.06-.07c-.18,0-.26-.07-.26-.27a5.15,5.15,0,0,1,0-.55c0-.44.07-.88.1-1.33a1,1,0,0,1,0-.24.22.22,0,0,1,.11-.12,2.21,2.21,0,0,1,.37,0l1.76,0,1.33,0,.85.05c.12,0,.21-.07.21-.17,0-.43.05-.85.07-1.28,0-.07-.08-.13-.17-.13a14.74,14.74,0,0,0-1.76,0l-.91,0a6.44,6.44,0,0,1-1.45-.16.24.24,0,0,1-.21-.25c0-.63,0-1.26,0-1.89a.2.2,0,0,1,0-.11c0-.05.08-.11.12-.11a4.1,4.1,0,0,1,.49,0l3.28.05h1.1a1.06,1.06,0,0,0,.23-.05c.05-.23.09-.45.12-.67a3,3,0,0,0,0-.42c0-.22-.06-.3-.27-.31H148l-5-.07Z"/><path class="cls-1" d="M127.53,58.29a.2.2,0,0,0-.2.19c0,.12,0,.24,0,.36,0,.83,0,1.66,0,2.49,0,1.78-.19,3.56-.31,5.34,0,.26,0,.53,0,.79v.18a.21.21,0,0,0,.2.19h.25l1.58,0h.24a.23.23,0,0,0,.17-.15,2.46,2.46,0,0,0,.1-.72c0-.59,0-1.17,0-1.76,0-.38,0-.77,0-1.15,0-.16.05-.27.25-.28l.55,0c1,0,2,0,3,0h.42c.07,0,.15-.09.17-.16a2,2,0,0,0,0-.24c0-.3,0-.6,0-.91a.16.16,0,0,0-.15-.16l-.48,0-2.37,0a4.25,4.25,0,0,1-1.25-.16,13.09,13.09,0,0,1,.13-2.1l0-.12c0-.07.09-.15.16-.15h.31l1.76,0h2.07a1.84,1.84,0,0,0,.41-.06.15.15,0,0,0,.12-.13c0-.34,0-.68,0-1a.2.2,0,0,0-.18-.2l-.43,0L128,58.29Z"/><path class="cls-1" d="M120.88,59.66h.43l3.65.05h.54a.18.18,0,0,0,.2-.18l0-1.16s0-.08-.08-.08a2.86,2.86,0,0,0-.42,0l-6.2-.09h-.36a.22.22,0,0,0-.24.21c0,.13,0,.25,0,.37,0,2.17-.13,4.33-.32,6.49-.06.69-.14,1.37-.26,2a1.51,1.51,0,0,0,0,.3.11.11,0,0,0,.07.08.55.55,0,0,0,.17,0l2,0h.12a.25.25,0,0,0,.17-.16,2,2,0,0,0,0-.24c0-.42,0-.85,0-1.27a16.64,16.64,0,0,1,.13-2.12c0-.19.1-.25.27-.27h.36c1,0,2,0,3,0h.49a.19.19,0,0,0,.17-.14,4.42,4.42,0,0,0,.06-1.15c0-.11-.08-.19-.19-.19l-1.46,0h-1.4a3.76,3.76,0,0,1-1.06-.14.33.33,0,0,1-.06-.12c0-.69,0-1.38,0-2.07A.2.2,0,0,1,120.88,59.66Z"/><path class="cls-1" d="M91.4,65.75a1.72,1.72,0,0,1-.59.16,5.48,5.48,0,0,1-1.51-.09,12.58,12.58,0,0,1-1.46-.39,1.37,1.37,0,0,0-.29-.07.08.08,0,0,0-.09.07,1,1,0,0,0,0,.24c0,.38.09.76.14,1.14a.27.27,0,0,0,.24.24,11.64,11.64,0,0,0,3.67.32,4.75,4.75,0,0,0,1.24-.28,3,3,0,0,0,.75-.4,2.24,2.24,0,0,0,.78-1.06,3.56,3.56,0,0,0,.13-1.08.52.52,0,0,0-.16-.37,1.91,1.91,0,0,1-.26-.41,2.14,2.14,0,0,0-.7-.82l-1-.73c-.32-.25-.64-.5-1-.77a6.82,6.82,0,0,1-.59-.61,1.66,1.66,0,0,1-.31-.51.73.73,0,0,1,.22-.83,1.57,1.57,0,0,1,.59-.3,3.14,3.14,0,0,1,1.26-.05c.34.05.68.13,1,.19a5.8,5.8,0,0,0,.6.06s.06,0,.1-.06a3.1,3.1,0,0,1-.1-.53c0-.2,0-.41,0-.61a.53.53,0,0,0-.08-.36.59.59,0,0,0-.14-.06c-.28-.06-.56-.13-.84-.18a7.4,7.4,0,0,0-3,.15,4,4,0,0,0-1,.39,2.74,2.74,0,0,0-.7.57,1.76,1.76,0,0,0-.44,1,2.23,2.23,0,0,0,.76,2c.25.21.51.41.77.6a12.74,12.74,0,0,1,1.45,1.19q.33.31.63.66a1.68,1.68,0,0,1,.3.52.77.77,0,0,1,0,.54A1,1,0,0,1,91.4,65.75Z"/><path class="cls-1" d="M150.28,68.15l.36,0,6.26.09h.3a.22.22,0,0,0,.21-.18c.06-.38.11-.76.17-1.17a1.51,1.51,0,0,0-.49-.15,2,2,0,0,0-.49,0c-.62,0-1.25,0-1.88,0h-1.45l-.37,0a.19.19,0,0,1-.16-.15c0-.08,0-.16,0-.24a22.78,22.78,0,0,1,.1-2.61c.06-.62.11-1.25.17-1.87.08-.81.17-1.61.25-2.42,0-.18,0-.36,0-.54a.19.19,0,0,0-.16-.16H153l-1.94,0-.12,0a.17.17,0,0,0-.16.15c-.05.3-.11.6-.14.9-.06.75-.11,1.5-.14,2.24s-.05,1.62-.06,2.43a24.63,24.63,0,0,1-.27,3.32,3,3,0,0,0,0,.31A.22.22,0,0,0,150.28,68.15Z"/><path class="cls-1" d="M136.12,68l2.13,0h.05s.11-.08.12-.13a1,1,0,0,0,0-.3c.06-1.45.11-2.91.17-4.62.06-1,.14-2.29.22-3.56,0-.2,0-.4.06-.6s0-.31-.31-.32h-.3l-1.22,0c-.74,0-.67-.06-.69.69s0,1.78-.09,2.67c-.07,1.31-.16,2.62-.24,3.93,0,.41-.06.81-.09,1.21s0,.57,0,.85A.18.18,0,0,0,136.12,68Z"/></g></g></svg>