<svg xmlns="http://www.w3.org/2000/svg" width="113.53" height="97.53" viewBox="0 0 113.53 97.53"><defs><style>.cls-1{fill:#ff671d;}.cls-2{fill:#fff;}</style></defs><title>families</title><g id="Layer_2" data-name="Layer 2"><g id="ARTWORK"><path class="cls-1" d="M68.61,53.62A11.85,11.85,0,1,1,56.76,41.78,11.85,11.85,0,0,1,68.61,53.62Z"/><path class="cls-1" d="M61.79,66.28H51.73A15.18,15.18,0,0,0,36.57,81.45V93.74l0,.2.84.26a69.21,69.21,0,0,0,20.63,3.33c11.15,0,17.61-3.18,18-3.39l.79-.4H77V81.45A15.18,15.18,0,0,0,61.79,66.28Z"/><path class="cls-2" d="M51.69,19.11A19.12,19.12,0,1,1,32.57,0,19.12,19.12,0,0,1,51.69,19.11Z"/><path class="cls-2" d="M81,38.23A19.12,19.12,0,1,0,61.83,19.11,19.12,19.12,0,0,0,81,38.23Z"/><path class="cls-2" d="M47.47,64.41a14.21,14.21,0,0,1,2.22-23.14,24.09,24.09,0,0,0-9-1.75H24.47A24.5,24.5,0,0,0,0,64V83.83l.05.31,1.37.42a111.51,111.51,0,0,0,32.74,5.36V81.45a17.61,17.61,0,0,1,13.31-17Z"/><path class="cls-2" d="M89.05,39.52H72.84a24,24,0,0,0-9,1.75,14.21,14.21,0,0,1,2.22,23.14,17.55,17.55,0,0,1,13.31,17v8.47a111.61,111.61,0,0,0,32.74-5.36l1.36-.42.06-.31V64A24.51,24.51,0,0,0,89.05,39.52Z"/></g></g></svg>