<svg xmlns="http://www.w3.org/2000/svg" width="1545.78" height="144.95" viewBox="0 0 1545.78 144.95"><defs><style>.cls-1{fill:#009ade;}</style></defs><title>header_splash</title><g id="Layer_2" data-name="Layer 2"><g id="ARTWORK"><path class="cls-1" d="M1358.16,53.08c-.16-2,0,.73,0,0Z"/><path class="cls-1" d="M1361.33,51.07c2.16-2.76-3.33,0-3.17,2-.09,1.45-.17,2.91-.25,4.36C1363.63,56.13,1358.56,51.56,1361.33,51.07Z"/><path class="cls-1" d="M1334.74,52.85c.11.18-9-1.2-9.08-1.61-1.3.37-2.15,1.28-2.21,3.16C1326.88,53.49,1334.35,57.43,1334.74,52.85Z"/><path class="cls-1" d="M1426.4,59.13l-.33,0c-1.2.1-2.87-.35-3.11.92C1426.84,61.86,1439.71,59.93,1426.4,59.13Z"/><path class="cls-1" d="M1252,75.51c2.13-.54,7,2.16,6.21-1.84C1255.43,73.52,1253,72.33,1252,75.51Z"/><path class="cls-1" d="M1281.35,78.27c-1.37-2.15-5-5.19-8-2.65l-.06,1.1c1.63,1.58,1.77,1.63,1.44,1.26C1277.12,79.85,1278.14,79,1281.35,78.27Z"/><path class="cls-1" d="M1300.83,80.23a.65.65,0,0,0-.25.22c.21,1,.47.41.44,0l9.71.55C1311.88,76.53,1302.67,79,1300.83,80.23Z"/><path class="cls-1" d="M1218.54,90c17.18-12.82-5.62-.32,0,0Z"/><path class="cls-1" d="M1168.4,119.94c.74.26.84.41-1.47,0-3.9-1.63-3.76,3-1.2,3.21,9.7-.3,20.67.33,30.53.63C1196.77,119.57,1174.44,119.94,1168.4,119.94Z"/><path class="cls-1" d="M1166.93,119.92c.13,0,.65,0,1.47,0C1167.25,119.55,1164.56,118.93,1166.93,119.92Z"/><path class="cls-1" d="M1249.9,127.48c-.76-1.84-5-.36-6.93-1.08,0,1.4,1.21,1.59.83,3.34q3.29-4.2,6.09.34l.12-2.18C1249.83,126.44,1249.85,127,1249.9,127.48Z"/><path class="cls-1" d="M1152.65,120.2c-1.71,0-2.05-1.26-3.68-1.31a1.63,1.63,0,0,0-.32,0c-.49,2.63-7.65-.94-4.25,3,2.19-.71,12.83,5.13,14.1,3C1163.47,115.08,1152.57,121.56,1152.65,120.2Z"/><path class="cls-1" d="M1272.67,37.91l3.5.57C1275.78,36.05,1274.69,35,1272.67,37.91Z"/><path class="cls-1" d="M1270.12,42.63c.18.86,1-2.2,0,0Z"/><path class="cls-1" d="M1209.56,103.75a2.59,2.59,0,0,0,.17-2.19C1208.51,101.94,1209.07,103.39,1209.56,103.75Z"/><path class="cls-1" d="M1227,101.18a1.33,1.33,0,0,0-.92-.88C1226.07,101.46,1226.8,101.48,1227,101.18Z"/><path class="cls-1" d="M1310.55,46h.13c1.61,0,3.84.74,4.12-.86-1.23-1.58-4.35-1.33-7-1.49C1305.47,45.89,1307.81,46,1310.55,46Z"/><path class="cls-1" d="M1329.84,49.29c0-2.37,3.64-.29,5.14-.81,1-1.35-7.67-2.21-11-2.81C1323.72,49,1327.35,48.59,1329.84,49.29Z"/><path class="cls-1" d="M1485.8,65.77c-.34,3.08,6.31-.55,6,2.53,1.81-.15,5,1.38,4.18-2Z"/><path class="cls-1" d="M1246.9,72.29c-1.2-1.88-9.87-1.68-11-1-.85,4.63,8.6,2.53,10.71,1.87,0,.1.14.09.4-.15C1247.43,71.66,1247.16,71.84,1246.9,72.29Z"/><path class="cls-1" d="M1200.5,84.63a17.11,17.11,0,0,0,.19-2.75A3.23,3.23,0,0,0,1200.5,84.63Z"/><path class="cls-1" d="M1256.45,104.2c-.14,1.22.94.7,1.25.24A1.08,1.08,0,0,0,1256.45,104.2Z"/><path class="cls-1" d="M1313.53,112.74c1.83,2.78,8.11,8.71-.46-1C1313.11,112.4,1313.39,112.73,1313.53,112.74Z"/><path class="cls-1" d="M1227.21,116.76q-1.23-5.82-9-3.78C1216.57,118.14,1220.37,116.38,1227.21,116.76Z"/><path class="cls-1" d="M1192.87,111.54c-2.41,1.53,10.71,8.75,11.17.63l-.32.09c-1.18.36-1.88,1.3-3.8.77Q1200.72,108.42,1192.87,111.54Z"/><path class="cls-1" d="M1208,113.49c-1.21.1-2.87-.35-3.11.92,1.38,1.77,5.15,1.25,8.06,1.55C1213.35,109.72,1212.06,114,1208,113.49Z"/><path class="cls-1" d="M1228.1,119c-.78,2.1.87,1.55,1.21.86q8.18,5.44,19,2.48C1248.17,118.39,1228.18,119,1228.1,119Z"/><path class="cls-1" d="M1215.92,118.31c2.37.14-2.78-.31,0,0Z"/><path class="cls-1" d="M1212.75,120.32c1.22.51,12.92,3.63,13.32-1.43l-10.15-.58C1213.14,118,1210.69,117.81,1212.75,120.32Z"/><path class="cls-1" d="M1223.73,124.22c-3.79.49-10-2-12.25.4,1.8-.18,2.76,1,2.87,3.45a3,3,0,0,1,2.21-3.16c.39,2.4,19.09,1.34,22.28,2.36C1240.86,122.3,1223.05,124.18,1223.73,124.22Z"/><path class="cls-1" d="M1199.42,121.75c-1,3.93,8.06,1.69,7.88,4.83a8.7,8.7,0,0,0,3.29-4.19l-6.09-.35Z"/><path class="cls-1" d="M1257.34,126.13h-.09l-.43,0c-11.89.86,6.69,3,7.35,3.64C1264.31,127.35,1259.48,126.27,1257.34,126.13Z"/><path class="cls-1" d="M1280.35,131.8c2.56-.8,7,.68,7.29-2.87l-3-.17C1284.19,131,1280.09,128.77,1280.35,131.8Z"/><path class="cls-1" d="M134.29,76.94l-.46-.27C131.68,77,133.32,77,134.29,76.94Z"/><path class="cls-1" d="M98.91,76.66c3.15-.87,8.08,1.16,10.5-1C104.27,75.52,101.75,74,98.91,76.66Z"/><path class="cls-1" d="M81.46,76.35c-1.83-1.92-12.89-.7-15.11-.91-2.76.08,1.87.85,7.35,1.32-3.94.35,1.81,1.28,3.72.45a.47.47,0,0,0-.07-.19c5,.26,9.53.1,8.78-1.21C83.93,75.63,83.55,76.46,81.46,76.35Z"/><path class="cls-1" d="M81.46,76.35c2.09.11-2.18-2.28,0,0Z"/><path class="cls-1" d="M7,75.52c-4.06.22-5.9-2.34-7,1.11a38.77,38.77,0,0,0,11.63.22C9.6,75.65,8,77.63,7,75.52Z"/><path class="cls-1" d="M1248.85,64.14l-.46.11A1,1,0,0,0,1248.85,64.14Z"/><path class="cls-1" d="M1244.3,65.34a42.17,42.17,0,0,1,4.09-1.09C1247.27,64.31,1244.75,63.9,1244.3,65.34Z"/><path class="cls-1" d="M1331,60.31c-1.46-.11-2.93-.24-4.38-.37A22.91,22.91,0,0,0,1331,60.31Z"/><path class="cls-1" d="M1254.78,70.76c2,.17,3.94.33,5.9.52C1260.69,71.08,1258.39,70.91,1254.78,70.76Z"/><path class="cls-1" d="M1330.35,61.54c1.13,0-1.72-1.81,0,0Z"/><path class="cls-1" d="M1312.57,63.8a12.77,12.77,0,0,0,2.69-.16C1315.21,62.43,1312,63.51,1312.57,63.8Z"/><path class="cls-1" d="M1332.66,60.26l0,.18c4.91.37,9.68.62,13.74.63C1348.42,59.77,1332.68,59.64,1332.66,60.26Z"/><path class="cls-1" d="M1319.51,59.26c2.29.24,4.66.47,7.06.68A36.22,36.22,0,0,0,1319.51,59.26Z"/><path class="cls-1" d="M1331.49,60.28l-.54,0,.51,0Z"/><path class="cls-1" d="M1354.89,60.53a8.93,8.93,0,0,0,2.19-.67C1357,59.19,1356,59.72,1354.89,60.53Z"/><path class="cls-1" d="M1358.24,59.22c-.54,2.46.22,3.55,3.53,2.42,1.69.66,2.85.62,3.48-.68C1363.11,60.67,1360.43,58.87,1358.24,59.22Z"/><path class="cls-1" d="M1411.94,69.45l-.45.26C1412.46,69.81,1414.1,69.81,1411.94,69.45Z"/><path class="cls-1" d="M1429.36,67.28c-3.75.41-5.41-1.82-8.22-4.19-.26.89-1.9,1.08-2.3,1.9,0,1.23,3.2.73,2.38,2.44-2.72,1.56-2.18-.89-5.83-.52-1.48-2,3.75-.54,2.28-2.52-6-.81-11.18-.3-17.45.32,2.66.71,3.85,4.23.08,4.33q3.87,4.89,11.19.67c-.69-.06-1-.18.45-.26-7.84-1.3,27.87,4.61,23.22-3.52C1433.49,66.23,1430.08,70.37,1429.36,67.28Z"/><path class="cls-1" d="M1265.4,69.88h0c1.14-1.67.22-.73,0,0h0s0,.09,0,.14A.39.39,0,0,1,1265.4,69.88Z"/><path class="cls-1" d="M1264.13,68.75a5.77,5.77,0,0,0,1.21,1.09C1265.42,69.21,1265,68.87,1264.13,68.75Z"/><path class="cls-1" d="M1279.3,71c1.14-1.64-11.61-3.94-13.9-1.12C1268.45,71.93,1274,72.22,1279.3,71Z"/><path class="cls-1" d="M1232.41,63.32a1.54,1.54,0,0,0-2.09,1,54.58,54.58,0,0,1,11.65.46C1241.65,63,1235.7,62.67,1232.41,63.32Z"/><path class="cls-1" d="M1436.37,68.39c2.42,2.21,7.35.18,10.49,1C1444,66.73,1441.5,68.3,1436.37,68.39Z"/><path class="cls-1" d="M1355,69.05a36.24,36.24,0,0,0,12.63-4.41c7.73-.46,20.5,5,31.49,4.42.31-2.56.38-1.76,1.08-5,.12,0-32.56-5.09-32.64-3.17-.81,1.71,2.34,1.21,2.37,2.44-4.73,1.12-5.76-.06-10.47.17.08.79,1.51.84,1.2,1.84-2.32-.67-6.36.38-8.28-.59l1,.06h.3c5.76.33.19,0-1.26-.07a1.86,1.86,0,0,1-1.07-1.73c-.09.54,1.9-1.31,3.57-2.52a46.53,46.53,0,0,1-8.46.54,11.35,11.35,0,0,1-3.27.88c.06-.49-8.39-1.59-9.31.15-1.26-.07-1-1-1.16-1.66l-1.23-.09c-.2.48,0,1.16-1.11,1.19-1.17-1.24-13.08-1.21-14-1.63a9.72,9.72,0,0,1,3.15-.65l-3.42-.35c.41-4,1.53-4.84,6.34-4.57-.59-7.49-17.71-7.18-22-7.81.14.9,1,1.15.89,2.24q-5.62.07-3.41,6.37c1.18-.11,1-1.9,1.19-3.16.75.21,11.52.6,11.17.58,2.39-.49,4.39,3.81,5.24,6.29-7.67-.82-13.77-1.57-15.38-1.66-2.32-.12-4.66-.24-7-.38,3.26-2-7.09-3-8.43-2.66,0-2.71,6.42-2.73,3.37-5-2.49.54-3.1-.59-1.85-3.38,12.55,3.83,8.18-2,16.38-1.26-5.43-2-14.44-4-26.45-6,1,6.19-2.4,21.47-6.05,4.15a29.58,29.58,0,0,1,2.55-4.72c-16.2-2.6-37.29-5.22-62-7.79,2-3.63,3.43-5.91,3.87-5.64C1211,11.24,1102,14.2,1086.44,13.61c-14.89-.57-29.4-1.21-43.77-1.54-9.72-.22-33.28,1.89-51.19,1.27L984.81,13c-5.73-.51-10.43-1.44-13.21-3a23.58,23.58,0,0,1-7.27,1.85C762,.4,545.44-5,544.82,6c-11.63-2.23-25.53,4.21-36.68.11-.3,5.26-132,1.78-162.88,27.93-63.93.74-135.16,3.31-164.87,7.09a11.58,11.58,0,0,1,1,1.89c-1.66,6.75-2.81.71-2.33-1.71a67.28,67.28,0,0,0-10.45,2c3.23-.18,1.44,2,6.41.71.46,1.11.2,1.55-.77,1.3-1.22.87,1.3,1,1.26,2-.58-.16-4.9.15-3.18,1,.47-.34,6.72-.38,3.61.77-1.29.22-3.46-.48-3.57.94,4,.05,9.28,1.07,11.61,1a3.1,3.1,0,0,1-.5-3.85c.1.48.46.66.82.84.1-3.36,2.76-1.79,2.83,1.22,3.9.54,2.4-.21,1.95-1.76.25-.71,4.36-.85,2.81.36,0,.43-.31.52-.38.87a4.2,4.2,0,0,0,2.78-.5c-.11,1.09.69,1.21,2.41.37.34-1.56-1.8-.31-1.64-1.68a16.19,16.19,0,0,0,5.21,1,4.16,4.16,0,0,0,0,.58l2.39-.06c-.07.42-4.26,2.67-1.53,2.61,4.85-3.62,8.29-1.28,10-1.1.05.58,2.79-2.3,2.74-2.21-.24,0,3.29,2.47,4,2.47,0-.51.1-1,.76-.87-.12.16-.73,2-1.14,2.63,1.39.13,3.71,1,4-.56-2.93,1-3.62.25-2-2.09,2.69,3.81,4.37-.78,5.16-1.41,1.23,0,6.12.54,6.73.32-1,.87-1,1.42.1,1.66a3,3,0,0,1,3.42-2.47,3.12,3.12,0,0,0-.24.6c.9.16,1.81.26,2.71.34a6.31,6.31,0,0,1-3.51.61c.15,6.2,23.95-1.66,23.24,3.3a34.37,34.37,0,0,0-8.39-.22c-.62,2,3.92.75,4,.76,0,.54-.5.6-.37,1.29-.17,0,9.1-1.19,8.76-1.07.11.81-.43,1-.36,1.73,1.44.63.21-1.47,1.17-1.32,0,3.4.86-.54,1.19-.45.07.5,0,1.21.43,1.27.07-1.08,2.32-2.19,3.13-2.65,3.25,0-1.49,3.89,4,.76a7.34,7.34,0,0,0,.46,2.57c-.36-.26-.73-.51-.8,0,.14,0,1.24.4,2.44.84-1.06-1.33-1.75-3.85.28-3.9.82,1.53-.5,1.17-.73,2.59a1.82,1.82,0,0,0,1.19-.46c0,.29,0,.57,0,.86,4-.08.86-.08.47,1.36l2,.72c-.05.89-4.79,1-4.77,1-.26,1.17.82.84.84,1.69-.53.15-.74.63-1.58.47-.61-1.31,0-1.67.73-2.59-.66-1.55-.57,1-1.58.46,0-1.34-.38-1.27,1.16-1.31-.72-1.15-5.42-1.23-5.19.12.47,1.69,3.05-.48,3.61.35a3.37,3.37,0,0,1-3.11,3.5l0-1.28c-1.94.75-7.76-.93-8.63,1.92h-.11a2.24,2.24,0,0,0-.84-1.69c.05,2.32-1-.12-1.16,1.74h.49l-8.11.34a2.26,2.26,0,0,1,0-1c-.38.27-.94.66-1.48,1.1-17.79.78-34.26,1.67-48.68,2.65a1.05,1.05,0,0,1-.49-.81c-.32,0-.77.46-1.32.93-14.55,1-26.9,2.12-36.27,3.31a11.42,11.42,0,0,1,.75,1.37l-2.81.38a8.27,8.27,0,0,1,.15-1.5A92.14,92.14,0,0,0,143,70.88a4.43,4.43,0,0,1,2.53.43h0c.7,3.21.77,2.41,1.08,5a37.52,37.52,0,0,0,5.88-.17.78.78,0,0,1,.05.35c-.8-.23-6.76.2-4.39,1.42.64-.46,9.3-.53,5,1.07-1.37.23-3.47-.28-4.43.36-4.43-.14-8.84-.35-13.1-.55.09-.26.22-.58.37-.93q5.76,2.58,9.12-1.18a.45.45,0,0,0,.25.11q1.31-3.37-1.75-3.52s0,0,0-.09a3.69,3.69,0,0,1,1.89-1.22c-1.77-.17-3.44-.34-5.08-.46.37-.16.4-.48-.21-1.11-1.47,0-3.16-.15-3.85.68a.85.85,0,0,0,.06.19c-1.68,0-3.35,0-5,.07,0,0,0-.08,0-.14-1.15.17-3.43.35-4.85.65-.63-.51-1.74-.77-2-1.5-2.82,2.38-4.48,4.6-8.22,4.19-.48,2-2.11.94-3.64-.13,0-.17,0-.31,0,0l-.06,0c-.27-1-2.44-2.17-1.78-1.07a1.14,1.14,0,0,0-.3-.09,2,2,0,0,0,1,3.16,2.27,2.27,0,0,0,1.2.63v-.16c6.07,1.8,20.83-.17,22.09-.31l0,0-1.06.17c1.5.08,1.14.2.46.27l1.06.57a9.12,9.12,0,0,1,.14,1.24l-6.34-.3c.06,1,7.6,1.49,19.12,1.65a.77.77,0,0,0,0,.15c5.5.06,12.84,1.47,16.06,1.4a7,7,0,0,1-.94-1.51c7.64,0,16-.15,24.66-.3-1.19.94-2,1.88.05,1.83a15.23,15.23,0,0,1,3.27-1.89l8.45-.17a13,13,0,0,0,2.06.54c0,.29.55-.05,1.2-.6l5.87-.13a7.16,7.16,0,0,0,2.34,1.1c0-.51.09-1,.43-1.16l.59,0a38.92,38.92,0,0,1-1.56,3.6c1.93.19,5.15,1.36,5.55-.76q-6.06,1.95-2.85-2.86h0c2.56,3.61,4.46,1.68,5.75-.13l9.68-.24c-.2.55.18.92,1.14,1.12a6.93,6.93,0,0,1,.43-1.15l2.86-.07c.31,8.51,33.16-2.33,32.17,4.53a47,47,0,0,0-11.62-.32c-.86,2.73,5.43,1,5.56,1,0,.76-.69.84-.51,1.8-.24-.07,12.58-1.65,12.12-1.48.15,1.12-.59,1.32-.49,2.39,2,.87.28-2,1.61-1.82,0,4.7,1.19-.75,1.64-.64.11.7-.05,1.69.6,1.77.1-1.5,3.21-3,4.33-3.67,4.5-.06-2.05,5.39,5.55,1a10.08,10.08,0,0,0,.64,3.55c-.5-.35-1-.69-1.1,0,.17,0,1.44.45,2.91,1-.89.86-1.58,1.55-2,2-.62-.84-.67,1.84-1.91,1.18,0-1.87-.52-1.77,1.62-1.82-1-1.59-7.51-1.71-7.18.17.64,2.34,4.21-.67,5,.47-.21,2.88-1.64,4.49-4.3,4.86,0-.6,0-1.19-.05-1.79-2.8,1.1-11.55-1.52-12.08,3.27a3.23,3.23,0,0,0-1.18-3c.08,3.23-1.33-.15-1.6,2.42.87,0,1.92-.13,1.69,1.15-1.24,0-9.25-.5-9.36,1.41-1.27.21-.66-1.7-1.7-1.74-.57,1.52,2,3-.48,3,1.22-1.45-1.27-2.16-.67-4.74-1.34,1-4.35,2.93-4.3,4.86-6.08-2.13-10.62.88-16.59-.2a2.92,2.92,0,0,1,.59,1.77c.45.56-8.42-5.25-8.33-1.58-2.65-.75-18.54-1.74-19.32,1.06-3.62,0-22.06,2.14-22.15-1.84-1.27.06-4.11,5-7.14,2-.1,1.13.65,1.29.61,2.36,1.09.15,1.07-.83,1.62-1.23.14.46.05,1.17.59,1.18.11-.47,0-1.17.52-1.2-.72,2.37.23,3.34,2.83,2.9-.15.6-4,1.29-4.39,1.29.1-.48.54-.61.53-1.2-1.52-.4-1.09,1.2-2.19,1.24-.2-1,1.09-5.37-1.78-5.3-1,1.78-1.68,2.48-1,4.18.79-.15.14-1.78,1.06-1.81,1.84-.65.9,1.83,1.17,2.94q-2.4-1.74-2.74.66c-.81-1.46-1.61-1.37-2.26-1.73l-3.84.38c.12-.39.1-1.07.37-1.38-.12-.19,0-.35.68-.11-.09-1.21,5.79-.64-1.71-2.34-1,.63.68,2.73-.47,3.57a4.67,4.67,0,0,0,.39.34c-8.2.84-24.53,2.59-24.63,3.22,2.12,2.1,27.61-1.14,27.63-.67,6.13-1.18,61.2-5.49,66.32-.41,0,.28-6.14,3.13-2.11,4.21.11-.47,0-1.18.52-1.2,0,1.23,1.27,1.94,2.52,2.17a45.8,45.8,0,0,0-5.76.87c.1,4.09-1,3.59,4.51,3.46.12-1.57-2.16-.42-1.72-2.34,4.74-.12,14.31,2.58,16.63,2,1.52-6.18,19.1-6.49,40.06-5.19,0,1.77-1.62,10.93-1.63,10.85,2.15,6.89,64.1,9.33,77.88,9.87,9.22.36,22.93-3.4,34.49-5.26,8.62.1,17.32-.13,25.84-.5,49.73,3.48,108.68,23.57,154,16.79,10.15-1.51,16.61-6.25,22.94-11.27a144.5,144.5,0,0,1,23.75-1.24c6.81.33,17.35,4.22,23.87,4.18,7.49,0,41.17-.28,42.46-4,0,0-.72-5-.69-5.92-2.44.18-3.75-.78-3.94-2.85l.49-.26c6.83,1.05,13.42,2,19.54,2.37,64.13,4.31,151.79,17.64,215.06-2-1-5-21.55-1.45-24.31-2.46l-.12,2.18c-2.92-.3-6.68.21-8.06-1.56,3.21-.06,4.64-1.34,4.34-3.79q18.23,1,36.44,1.87c-1.07,2.12-6.87-1.44-6.19,2.79,5.66,2.22,9,1.34,10.14-2.59,28.29,1.4,56.59,2.67,84.9,3.65,23.75.82,47.17,1.92,71,.63,4.27-.23,8.61-.55,13-.91a4.57,4.57,0,0,1,.16.61c4.23,1.25,22-3.13,30.71-2.64.7,3.56-3.43,1.31-3.29,4.2,10,.56,8.1,1.4,8.49-6l8-.94c3.44-.4,14.84-.8,23.5-2.28a26.88,26.88,0,0,0,4.22,1.82,8.4,8.4,0,0,0-.54-2.57,19.93,19.93,0,0,0,4.88-1.72v0a.33.33,0,0,0,0,.12c.26.35.35.39.36.32,1.47,1,6,2.16,6.75.08.09-1.87-3-3.18-5.1-2.69,1.56-3.48-.13-4.84-1.09-6.42,31,1.75,66.16,6,72.51,7.4,0-.87,46.75,6.61,50.77,2.87-.14-1.16-30.07-5.36-45.1-7.39a6.09,6.09,0,0,0,.72-.59c-2.07-1.63,1.08-5.39-.64-6.6-13.9,2.68-3,2-3.29,4.19,1.29-.38,1.47-.09,1.25.24.48.59.4,1.85.59,2.58-4.29-.58-7.06-.93-7-.93-1.22.61-2.68.41-4.24,3q-.49-4.44-5-1.38c.57-2-1-6.64,2.34-5.33,1.68.11.4,3.06,1.85,3.39,1.34-3.08.2-4.41-1.6-7.75-5.28-.3-3.16,7.87-3.6,9.64-2-.13-1.13-3-3.94-2.41-.07,1.09.75,1.34.89,2.23-.73,0-7.74-1.52-8-2.63q7.15,1.45,5.39-5.17c1,.09.71,1.38.89,2.24,1,0,.86-1.29,1.14-2.12,1,.76.91,2.56,2.92,2.35,0-2,1.38-2.23,1.26-4.31-5.75,5.41-10.7-3.82-13-4-.42,7.32-34.21,2.26-40.87,2.06a2.24,2.24,0,0,0-.92-1.2c5.57.48,14,1.16,15,.16-.06-.41-9.44-1.46-15.67-2.11,1.7-3.37,3.72-7.47,5.85-11.8l.17,0-.09-.11,1.64-3.35.16.21c7.23-11.08,2.12,12,5.26-3a17.26,17.26,0,0,1,1.64,6.32,4,4,0,0,0-.94.44.22.22,0,0,0-.1.08c.1.4.19.16.18,0l.87,0c0,.1,0,.21,0,.31,0-.1.09-.2.14-.31l2.79.07c.26-1.17-1.19-1.11-2.42-.78,1.28-2.28,3.59-4.55,4.88-4.67,2.07-7.89,1.3-5,.7,5.51a11.42,11.42,0,0,1,4.24-2.92,17,17,0,0,0,.59,7.57c.09-1.45.17-2.91.25-4.36,1,.3.65,1.92,1.66,2.23,0,0,0,0,.25.06,1.6-.28,1.17-.29.58-.23,1.68-1.07-1.26-5.06-3.1-5.36,6.09-2.32,14.34-.3,22.18.14a2.86,2.86,0,0,0-.24,4.37c.68-1.57,10.57-5.84,6.46-6.2-3.72,1.22-3.72-.29-7.17.69.12-7-2.57-6.82-4.56-4.2.35-1.61-.71-2.54-3.19-2.81a3.18,3.18,0,0,1-.15-.69c9.63.25,22.72.46,30.2.77-10-.84-20-1.35-30.17-1.59.56-2.36,5.37-1.32,5.5-3.65-5.66-1.4-8.59-4.27-9.34,3.56-3.86-.07-7.74-.08-11.63-.08l-6.29-1.08h.3c.64,0,1.52.24,1.61-.39-.5-.61-1.72-.47-2.78-.5-.33.34-.4.56-.31.69l-1.79-.31h.09c-.36-.12-.76-.23-1.2-.35.2-.39.4-.79.59-1.18,5.57,1,17.32.36,17-.76-2.19-.15-4.37-.31-6.56-.49a5.5,5.5,0,0,0,1.89-3.07c2.33-.07,4.73-.11,7.17-.13l.25.2a4.49,4.49,0,0,0,2-.2,251.9,251.9,0,0,1,26.66,1.39c1.07.82,1.31,1.18,1.09,1.33A73.24,73.24,0,0,1,1263,62.82l-.14.18a50.85,50.85,0,0,0,5.2-.11c17.64.57,38.4,4.52,57.18,6.32-13.07.2-26.15.72-35.49-.22-4,.18-9-.09-9.28,2,15.8-.18,135.92,4.31,136.17.24C1396.58,72.15,1371.7,73.83,1355,69.05Zm31.25-4.1c1-.13,1.1.22,1.18.6a7.11,7.11,0,0,1-7,.73A8.6,8.6,0,0,1,1386.26,65ZM198.49,42.14c-.89.24-1.44-.17-1.63-1.25l.8,0C198.37,40.8,198.6,41.27,198.49,42.14Zm2.7,5.48.1-.08A.19.19,0,0,1,201.19,47.62Zm31.21-6.73c-.69.23-2.37,0-2-.51-.19.06-.23,0,.39-.31C232.12,39.51,232.66,39.78,232.4,40.89Zm7.56,7.6h0Zm1.8-.51a1.26,1.26,0,0,1-1.24-.42l1.23,0Zm4,2c8.77-2.7-9.07,1.68-9.18.22,1-1.89,10.87-2.12,13.13-2C249.8,50,246.77,49.93,245.8,50Zm-101,25c.06.38,0,.84.12,1.19a1.94,1.94,0,0,1-1.75-1.11A14.15,14.15,0,0,0,144.8,75Zm-17.91-2.6c.7-.1,1.32-.12,1.28.6.31-.07.65-.12,1-.16,1,.14,2,.25,1.24,1.27a4.54,4.54,0,0,0-3,.57,15.56,15.56,0,0,1-1.92.17c0,.07,0,.13,0,.2a4.24,4.24,0,0,1-.93-.42C123.79,73.05,126.52,73.39,126.89,72.42Zm57.34,33.08c-.85.25-1.51-1.58-1.13-2.48-.09-.13,0-.35.51-.47a4.46,4.46,0,0,1,2.25,1.72A1.51,1.51,0,0,1,184.23,105.5Zm8.3-.78c-.21.14-.4-.07-.06-1.2a4.3,4.3,0,0,0,3.32-.08C195.83,105,193.2,105.78,192.53,104.72Zm6.06.43c-.18,0,2-.44,0,0Zm-.54-.18c0-3.86,5.81.26,6.54-3.52C208.73,101.48,201.19,103.89,198.05,105Zm12.12-1.28c-.07-2.88,3.45-.16,5.49-1.32C216.71,106.12,210.21,104,210.17,103.69Zm21,.09c-.82-.08-2,.26-2.22-.54.78-1.88,4.24-.89,5.51-.73A4.55,4.55,0,0,1,231.17,103.78Zm24.94,2.37a21.45,21.45,0,0,1,7.09,1C262,107.29,254.4,108.63,256.11,106.15ZM255,107.36c-.64.7-1.94.72-3.3.67-.33,0-.22,0,0,0-1.47,0-14.93.12-14.89.36C236.77,106.45,255,105.4,255,107.36Zm-2.38,5.92c-1-.5-9.09-2.65-6.88-.36a58.66,58.66,0,0,0-8.17,0,1,1,0,0,0,.42-.36c-.16-.85-.93-1-1.15-1.76,6-.14,22.06,1.48,26.49-1.82C263.38,110,255.21,112.44,252.65,113.28Zm11-6c1.75.61,2,1,0,0Zm962.5-7c1,.24,1.08.66.92.88.64,1.69-.68,5-2.24,4.51a2.79,2.79,0,0,1-2.92-2.35A8.1,8.1,0,0,1,1226.1,100.3Zm60.06-44a34.35,34.35,0,0,1,5.52.41C1289.84,56.6,1288,56.47,1286.16,56.31Zm-21.74-3.05,0,0a7.54,7.54,0,0,1,.56,1.19l-1.21-.12A2.31,2.31,0,0,0,1264.42,53.26Zm-2.19,1q-3.13-.28-6.14-.5C1258,49.7,1261.8,48.77,1262.23,54.21Zm-27.62-2.49.19.13c-.74.72-2.79,1.09-5.58,1.21A52.37,52.37,0,0,0,1234.61,51.72Zm-5.88-15.81,2,.12c-.58,2.73-2,3.74-4.24,3C1226.29,36.86,1226.91,35.67,1228.73,35.91Zm-936.45,47a.28.28,0,0,0-.09-.1l-.17,0c0,.15,0,.29,0,.41h0c0-.15,0-.27,0-.42a.31.31,0,0,1,.17,0l.15,0ZM292,79.76c-.41-.31,2.16-.93,5.44-1.57l-1.81,1.66A22.65,22.65,0,0,1,292,79.76Zm-120.57-3c.33-.94,5.65-1.15,4,.36-.39,0-.79-.09-.85-.51l-1.2,0c0,1,.92,1,1.79,1.07-.13.25-.35.42-.42.75a5.76,5.76,0,0,0,3.86-.69,1.51,1.51,0,0,0,.1.83c-2.1.24-4.26.43-6.46.57C172.47,78.74,171.71,77.9,171.38,76.73Zm114.9-20.84c-.08,1.25.13,1.47.82.83,0-1-.41-5.68,2.67-5.21.31-.1.45-.37.38-.86.91,0,1.24.37,1.27.83l1.54,0c.13.69-.36.74-.37,1.29-.51-.52-1.1.07-1.41-.31-.44.95-1.34,1.95-1.34,2.09.18.73.51-.1,1.2,0,.36,1.2-.54,1.12-.35,2.15.82.24,1.08,0,.78-.88.22.17,7.22.49,7.19.26,0,.56-.69.41-.77.87A2.76,2.76,0,0,1,300.33,59c-1.13,0-4.94-.15-4.85-2.46-.09,1-.49,1.15-1.19.46a1.15,1.15,0,0,0,.83,1.27c-4-2.38-8.76,1-11.15,1.12,0-.06-2.87-5-.52-4.7C282.24,59.26,286.51,55.85,286.28,55.89Zm-.87-3c.28-3.39.25-1,2-1.34C287.43,52.94,286.78,53.38,285.41,52.91Zm2.43-5.61Zm7.39.94.36,0c-.28,0-.54.08-.71.12l0-.18H295a.2.2,0,0,0-.08.17C295.12,48.34,295.21,48.29,295.23,48.24Zm9.43,8.06c.35.28.26.67.18,1C304,56.85,303.49,56.36,304.66,56.3Zm-2.44-1.65c-.48-3.73-1.05-.87-2-.81,0-.29,0-.57,0-.86-.22-.73-2.75,2-3.2.08-.06-1.51,9.12-1.28,8-1.05C305.24,53.51,304.32,54.39,302.22,54.65Zm-.79.44.8,0c.21.58,1.65,2,1.66,2.54a2.47,2.47,0,0,1-2-.38C302.51,56.45,302.36,55.74,301.43,55.09Zm-8.11-7c-.35,0-.72.08-.83.37a7.15,7.15,0,0,1-.86-.55ZM179.65,75.94a20.6,20.6,0,0,0,3,.89.78.78,0,0,0-.14.42,4.64,4.64,0,0,1,1.07-.22,14.14,14.14,0,0,0,2.72.32c-1.43.3-2.9.56-4.42.79C182.27,76.17,179.43,77.78,179.65,75.94Zm54.8.75a.09.09,0,0,0,0,0c.41,0,.82,0,1.24.07Zm984.54-24,.07.08A.27.27,0,0,1,1219,52.66ZM306.3,58c0-.53.09-1,.77-.88l0,1.2h0c-.08-.18-.43-.19-.52-.13l.43.17h0c-.4-.07-.47-.14-.4-.18-.3-.13-.68-.3-1.06-.49,0-.46,0-.89.36-1C305.94,57.2,305.83,57.92,306.3,58ZM306,46c.05,2-.82,2-1.61,1.66v0c.67-.23,1.17-1.05,1.43-1.43C305.78,46.13,305.77,46,306,46Zm-4,1.38c.37,0,.34.13.12.3a4.82,4.82,0,0,1-1.6.17,1.49,1.49,0,0,0-.51-.32s.07-.1.1-.16a5.13,5.13,0,0,0,.41.48c1,.05.25-.56-.21-.74l.08-.12C301.27,47.7,301.22,46.63,302.05,47.36Zm-5-.37c-.66,0-1.35-.05-2.06-.05C295.33,46.62,296,46.63,297.06,47Zm-9.18.32a14.85,14.85,0,0,0,2,.36,2,2,0,0,1,.24.41c-3.89.66-9.91,2.07-13.93,1.62C275.5,49.22,285,47.64,287.88,47.31ZM276.2,51.84a.21.21,0,0,1,.11,0A1.49,1.49,0,0,1,277.45,54a7.33,7.33,0,0,0,1.43,0,2.14,2.14,0,0,0,.19,1.2c2.52-.06-.39,1.3-1.56,1.33,0-.42.48-.35.79-.45C276.78,53.14,275.48,62.4,276.2,51.84ZM182.72,67.55l-.47.18c0-.06,0-.1,0-.16Zm-23.2,4.62c.25,0,.5,0,.75,0a12.24,12.24,0,0,1-.52,1.4,8.77,8.77,0,0,1-1.41-.75C158.41,72.39,158.53,72,159.52,72.17Zm4.11,4.15c.13.66.63.91,1.13,1.16.14-4.65,3.81-2.48,3.91,1.69l.93.12q-3.19.15-6.47.19A3.89,3.89,0,0,1,163.63,76.32Zm70.19,2.5,1.48,0A9.08,9.08,0,0,1,233.82,78.82ZM250,80.18c12.14-3.74-12.56,2.32-12.7.3.41-.82,2.07-1.42,4.23-1.84l13.83-.32C254.69,80.16,251.16,80.1,250,80.18Zm37.65,2.65c1.14,2.12-.69,1.63-1,3.59a2.5,2.5,0,0,0,1.64-.63c0,.28,0,.56,0,.84l-1.31,1.24C285.63,86,285,82.9,287.6,82.83Zm596,38.55c-1.18.2-1.59,1.21-1.35,1.36-.5,1.12-.87,2.41-2.9,1.68,0-.72.08-1.45.13-2.18a4.59,4.59,0,0,1-3.12.92,25.81,25.81,0,0,0,2.41-6.43c5.1,4.83,4,1.63,6.12-.37l4.94.26A5.76,5.76,0,0,1,883.64,121.38Zm314.74-17.19c-3.71-.94.34,0,0,0Zm11.35-2.63c.57,2.09.22,2.47-.17,2.19-1.29,1.92-6.09.28-5.92-2.54A8,8,0,0,0,1209.73,101.56ZM1187.58,97c1.11,7,12.11-.28,11.83,6.88-1.5-.58-3.54-1.33-5.62-2.14.72-.06,1.35-.21,1.38-1l-1.19,0c-.09.6-.88.42-1.33.62C1187.22,99.17,1182.31,96.89,1187.58,97Zm25.36-27.53c1,.15,3.89.28,7.76.4l0,.56a50.36,50.36,0,0,1-8.18-.89Zm-9.81-1.58h0Zm3.06-3.63-2.63-.24c-1.32,0-2.37.07-3.35.16.34-.69.68-1.36,1-2,1.29-.12,2.64-.23,4-.32A6.75,6.75,0,0,0,1206.19,64.28Zm36.13-10.77c-1.51-2.32,6.93-1.68,7.77-.09C1247.33,53.35,1244.72,53.37,1242.32,53.51Zm72.94,10.13a6.71,6.71,0,0,1-2.69.16c-4.37-.18-6.06-2.7-.85-3.2-.43,1.1,6.86,1.93,8.24,1.88C1322.13,67.47,1315.13,60.22,1315.26,63.64ZM1350,69.73l1.16-.12a3.92,3.92,0,0,0,.32.25Z"/><path class="cls-1" d="M1464.31,69.13c2.19-2.28-2.08.11,0,0Z"/><path class="cls-1" d="M1464.31,69.13c-2.08.11-2.47-.72-4.66-.54-1.77,3.07,25.63-.2,19.78-.37C1477.2,68.43,1466.15,67.21,1464.31,69.13Z"/><path class="cls-1" d="M1538.78,68.3c-1,2.11-2.61.13-4.63,1.33a38.77,38.77,0,0,0,11.63-.23C1544.68,66,1542.84,68.52,1538.78,68.3Z"/><path class="cls-1" d="M206.39,81.58a4.06,4.06,0,0,1,1.53-.89C207,80.87,206.54,81.17,206.39,81.58Z"/><path class="cls-1" d="M206.9,83c-.49-.58-.65-1-.51-1.42C205.65,82.26,205.45,83,206.9,83Z"/><path class="cls-1" d="M208.51,80.58a2.54,2.54,0,0,0-.59.11C208.1,80.65,208.29,80.61,208.51,80.58Z"/><path class="cls-1" d="M208.51,80.58c-.37,0-.11,1,0,0Z"/><path class="cls-1" d="M228.39,89a.43.43,0,0,0,.22,0A.69.69,0,0,1,228.39,89Z"/><path class="cls-1" d="M228.66,91.38a1.35,1.35,0,0,0-.72.06A.45.45,0,0,0,228.66,91.38Z"/><path class="cls-1" d="M231.24,83.6c.3,2.16-1.62,1.47-2.72,1.84q-.57-2.61-2.76.07c-.1-.7.06-1.69-.59-1.77.19,2.16,1.14,5.93.75,8.3,1.21.34,1.39-.35,2-.6-.95-.88-1.42-5.27.61-4.81.75,1.26-1.12,2.15-.16,2.34-.44-.19,1.71-1.38,2.6-1.47-.05-.13,0-.28.34-.34.06-.07.09-.11.09-.13C231.84,86.33,232.39,83.8,231.24,83.6Z"/><path class="cls-1" d="M231.34,87.75c0-.21-.1-.27-.35-.25A.38.38,0,0,0,231.34,87.75Z"/><path class="cls-1" d="M170,88.63c-.53-1.74-1.86-1.14-3.35-1.1C166.19,89.68,168.86,88.3,170,88.63Z"/><path class="cls-1" d="M158.4,88.91c0-.19,0-.39,0-.59-1.57-1.44-3.61.15-4.39,1.29,1.73.45,2.27.93,3.62,0C157.41,89.77,157.47,89.77,158.4,88.91Z"/><path class="cls-1" d="M143.51,90.46c0-.07-.09-.11-.13-.12-1-.73-5.93-2.21-5.39.25l5.28-.13C143.26,90.67,143.38,91,143.51,90.46Z"/><path class="cls-1" d="M256.57,89.69l-.31-.17C244,90.05,261.49,92.37,256.57,89.69Z"/><path class="cls-1" d="M187.9,97.1c3.06-.07-9.11-7.26,0,0Z"/><path class="cls-1" d="M216.94,109.46c-.11-1.32-1.37.81-2.76.07-2.31-.22-3.57.8-3.8,3.06C211,112.56,217.16,109.68,216.94,109.46Z"/><path class="cls-1" d="M220.84,110.55a7.65,7.65,0,0,0,.93.1C220.62,110,220.49,109.72,220.84,110.55Z"/><path class="cls-1" d="M227,112.78c.05-.58-.14-1.42-.05-2-1.7,0-3.87-.09-5.15-.17A21.66,21.66,0,0,0,227,112.78Z"/><path class="cls-1" d="M230.75,109.13c-.64.11-1-.11-1.12-.57-.74.2-.42,1.5-.5,2.39a11.49,11.49,0,0,0-1.22-.09c-.28,1.54.5,2,2.36,1.25Q228.44,109.74,230.75,109.13Z"/><path class="cls-1" d="M226.92,110.82l1,0c0-.15.06-.3.11-.48C227.26,110.13,227,110.38,226.92,110.82Z"/><path class="cls-1" d="M215.39,114.25c1.31-.5-.16-.21-.79,0C215,114.25,215.33,114.26,215.39,114.25Z"/><path class="cls-1" d="M215.39,114.25c-1.26.19-1.2.11-.79,0-3.28-.11-15.4-.71-15.2,1.58,5.36,0,11.33-.14,16.59.19C217.39,115.93,217.54,113.44,215.39,114.25Z"/><path class="cls-1" d="M170.19,117c0-.29.09-.8-.05.11l0,1.18c1.06-1.61,2.17-1.63,3.31-.08-.18-1,.5-1,.51-1.79C172.89,116.8,170.53,115.87,170.19,117Z"/><path class="cls-1" d="M225.34,114a.54.54,0,0,0-.18,0c-.88,0-1.09.69-2,.64,0,.74-5.79-3-3.26,2.46.65,1.18,6.52-1.8,7.7-1.38C229.51,113.63,225.56,115.44,225.34,114Z"/><path class="cls-1" d="M231.17,103.78c.19,0-.82-.08,0,0Z"/><path class="cls-1" d="M157.51,68.1l1.91-.25C158.37,66.25,157.77,66.79,157.51,68.1Z"/><path class="cls-1" d="M183.61,102.55a.71.71,0,0,0-.51.47C183.21,103.18,183.61,103.18,183.61,102.55Z"/><path class="cls-1" d="M210.73,82.94a4.52,4.52,0,0,0-.51,0C210.29,83.42,210.49,83.32,210.73,82.94Z"/><path class="cls-1" d="M215.66,102.37c-2.06,1.17.24.84,0,0Z"/><path class="cls-1" d="M192.47,103.52a1.44,1.44,0,0,0,.06,1.2C192.81,104.53,193.13,103.75,192.47,103.52Z"/><path class="cls-1" d="M39.91,80.49c-.13-1.68,3.42.41,3.28-1.27l-5.52.14C37.16,81.15,38.93,80.38,39.91,80.49Z"/><path class="cls-1" d="M115,81.06h0Z"/><path class="cls-1" d="M115,81.06h.16C118,81,110.65,81.16,115,81.06Z"/><path class="cls-1" d="M195.8,80.89l-.26-.09C188.09,78.14,194.93,88.89,195.8,80.89Z"/><path class="cls-1" d="M221.81,82c.28.87,11.86.31,11.06.33-.49-1.14-8.11-1.84-8.31-1-1.85-.53.58-1.18.51-1.79-1.57-.64-1.17-.26-.66,0C223.46,79.94,223,82,221.81,82Z"/><path class="cls-1" d="M172.81,87c-.13-.26-.28-.37-.07.39.14.13.2.14.22.09,1.1.39,6.22,1.71,5.84-.83C178.2,86.23,173.48,86,172.81,87Z"/><path class="cls-1" d="M235.7,85.27c-1.5.09-1.13-1-2.21,0,2.11,4.28,8,6.71,9.42,1,.72.88,3,1,1.72,2.34,1.82-.12,3.49-3.65,8.75-3.78.82-4.33-14.77,3.17-15.52-2q.54,3.14-2.13,2.43C235.82,85.27,235.84,85.27,235.7,85.27Z"/><path class="cls-1" d="M218.76,90.18a1.86,1.86,0,0,0,.5.83C219.33,90.75,219.11,90.44,218.76,90.18Z"/><path class="cls-1" d="M180.54,90.16c-1.85-.59-1.88.23-3.88-.5-2.24.12,3.06,2.62,3.4,3.48a1.56,1.56,0,0,0-.05-2.38c4.25-.1,8.76-1,12,.32-1,.16-2.64,2.25-1.76,2.86-.31,0-.54,0,.32.13.11,0,.15,0,.13,0,.56-.15.39-1,.94-1.18l.06,2.37a9.33,9.33,0,0,0,.46-4.09,6.39,6.39,0,0,1,2.25,1.65c-.14-5.74-.51-7.3.48-3,.8.1,2.29,1.79,2.82,3.2a9.35,9.35,0,0,1,1-3.88c1.44,8.19-.93-4.44,2.81,1.71,1.56-1.75-1.12-1.83-.66-4.14,4-1.69,3.42,5.78,3.46,5.85,4.93-.11,6.51.19,9.37-1.41l.06,2.71a24.56,24.56,0,0,1,3.87.1c0-.57,0-1.14,0-1.72,3.34-.85,4.15,4.11,1.57-3.6.47,0,2.8-3.1,2.68-3.62-2.31-4.3-30.57,1.81-34.79,1.43-.13-5.19-1.78-3.54-5.05-2.84,0,1.48,3.65.56,2.84,2.89-1.37.1-1.94.61-1.76,1.51C182.08,86.51,180.6,86.33,180.54,90.16Zm38.22,0c-.15-.75.9-.73.5.83-1.39-1.47-1.15,1.28-3.3.67C215.9,89.26,217.82,89.5,218.76,90.18Z"/><path class="cls-1" d="M197.79,94.49a1.68,1.68,0,0,0-.06-1.48A9.21,9.21,0,0,0,197.79,94.49Z"/><path class="cls-1" d="M217.67,94V94C218.38,94,218.22,94,217.67,94Z"/><path class="cls-1" d="M213.81,94.11a2.35,2.35,0,0,1,0-.26C213.53,93.89,213.47,94,213.81,94.11Z"/><path class="cls-1" d="M264,87.56c.77-1.06.47-1.37-1.13-1.16-1.53,2.58-1.13,4,1.2,4.12.06-.4,0-.58,0-.63-.18-.79-.93-.94-.59-2.32Z"/><path class="cls-1" d="M272.54,92.1a.4.4,0,0,0-.19,0C272.36,92.36,272.63,92.15,272.54,92.1Z"/><path class="cls-1" d="M272.92,92.68c.79-.53,2.13-.52,1.6-2.41-1.41,1.5-.34-.82-2.72,1.85.12.67.56.31.55,0,.11,0,.16,0,.19,0C272.82,92.11,272.88,92.38,272.92,92.68Z"/><path class="cls-1" d="M166.38,104.25c.16.25.73.55.68-.11A.56.56,0,0,0,166.38,104.25Z"/><path class="cls-1" d="M135.92,107.77c.07,0,.23-.18.26-.52C131.36,112.36,134.87,109.24,135.92,107.77Z"/><path class="cls-1" d="M182.72,111.47c3.72-.09,5.75.94,4.92-1.9Q183.49,108.34,182.72,111.47Z"/><path class="cls-1" d="M195.38,109.39c.11,4.41,7.36.73,6.08-.15-2.81-1.22-4.09-1-3.86.69C196.45,110.2,196.13,109.56,195.38,109.39Z"/><path class="cls-1" d="M207.92,110.43s.05,0,.19-.16c-.05-2.18-3.89-1.44-3.86.09C204.59,111.5,207.11,111,207.92,110.43Z"/><path class="cls-1" d="M194.86,110.59c-.11-.7-1-.48-1.68-.56-2.19.2-2.81-2.14-2.73,1.26C192,111.18,194.08,111.52,194.86,110.59Z"/><path class="cls-1" d="M182.19,112.67s-10.88-.68-11,1.46a12,12,0,0,0,10.35-1C181.66,113.49,182.59,113.84,182.19,112.67Z"/><path class="cls-1" d="M188.82,112.51c1.52-.12-1.29,0,0,0Z"/><path class="cls-1" d="M190.51,113.66c1.16-1.33-.17-1.27-1.69-1.15l-5.52.14C183.42,115.4,189.84,113.91,190.51,113.66Z"/><path class="cls-1" d="M184.47,115.58c.38,0-9.26-1.34-8.26,1.39,1.76-.5,11.89.41,12.15-.89a1.65,1.65,0,0,1,1.14,1.76c.11-1.35.64-2,1.62-1.82C190,114.68,186.52,115.92,184.47,115.58Z"/><path class="cls-1" d="M195,114.74l-3.32.08a4.7,4.7,0,0,0,1.72,2.33c-.05-1.7,4.84-.33,4.36-2.48Z"/><path class="cls-1" d="M166.47,116.05l-.23,0c-1.13,0-3.85.53-3.82,1.88C162.79,117.56,172.91,116.73,166.47,116.05Z"/><path class="cls-1" d="M151.34,117l-1.66,0c.09,1.93,2.54,1.2,3.91,1.68C153.79,117.06,151.52,118.2,151.34,117Z"/><path class="cls-1" d="M146.66,46c0,.28.09-.78,0,0Z"/><path class="cls-1" d="M146.7,47.67c0-.57,0-1.14,0-1.71.09-.78-2-1.94-1.21-.83C146.52,45.36,144.48,47.08,146.7,47.67Z"/><path class="cls-1" d="M163.12,49.37c.06-.41,1.12-3.3,2.32-3-.13,0,4.12,0,4.4-.09.07.5,0,1.2.42,1.26.64-1.63.22-2.47-1.26-2.54,0-.43.32-.52.38-.87-1.68.19-8.39-.14-8.72,2.79C162.77,46.86,163.06,47.27,163.12,49.37Z"/><path class="cls-1" d="M163.12,49.42v-.05S163.11,49.42,163.12,49.42Z"/><path class="cls-1" d="M159.44,45.65a20.28,20.28,0,0,1-3.59.51c.1,1.81,3.08.36,4.41.75A1.15,1.15,0,0,0,159.44,45.65Z"/><path class="cls-1" d="M121.15,47.86c-.08-.5-.74-.35-1.21-.4C114.49,47.59,119.59,48.53,121.15,47.86Z"/><path class="cls-1" d="M214.33,51a3,3,0,0,1,1.1-.64C214.8,50.5,214.43,50.72,214.33,51Z"/><path class="cls-1" d="M215.86,50.29c-.27,0-.08.76,0,0Z"/><path class="cls-1" d="M215.86,50.29a1.35,1.35,0,0,0-.43.08Z"/><path class="cls-1" d="M214.7,52c-.36-.42-.47-.76-.37-1C213.8,51.5,213.65,52.06,214.7,52Z"/><path class="cls-1" d="M232.36,55.47c0-.15-.08-.2-.26-.18A.27.27,0,0,0,232.36,55.47Z"/><path class="cls-1" d="M230.42,58.09a.86.86,0,0,0-.52,0A.33.33,0,0,0,230.42,58.09Z"/><path class="cls-1" d="M230.23,56.36l.15,0Z"/><path class="cls-1" d="M232.28,52.47c.22,1.56-1.17,1.07-2,1.33-.28-1.26-.94-1.24-2,.05-.07-.5,0-1.22-.43-1.27.14,1.56.83,4.28.55,6,.87.25,1-.26,1.46-.43-.69-.64-1-3.81.44-3.48.54.91-.81,1.56-.11,1.7-.32-.14,1.23-1,1.87-1.07,0-.09,0-.2.25-.25.06-.06.07-.09.06-.1C232.72,54.44,233.12,52.62,232.28,52.47Z"/><path class="cls-1" d="M188,56.11c-.37-1.26-1.34-.83-2.41-.8C185.29,56.87,187.21,55.87,188,56.11Z"/><path class="cls-1" d="M179.66,56.31v-.43c-1.13-1-2.61.11-3.17.94,1.25.32,1.64.67,2.61,0C179,56.93,179,56.93,179.66,56.31Z"/><path class="cls-1" d="M164.91,57.52l3.82-.09c0,.15.08.39.17,0a.24.24,0,0,0-.09-.09C168.11,56.81,164.52,55.74,164.91,57.52Z"/><path class="cls-1" d="M250.58,56.87l-.22-.12C241.51,57.13,254.13,58.81,250.58,56.87Z"/><path class="cls-1" d="M201,62.23c2.21-.06-6.58-5.25,0,0Z"/><path class="cls-1" d="M287.37,51.57c-.64.14-.05.51,0,0Z"/><path class="cls-1" d="M273.84,56.22l-1.12-.4a1.78,1.78,0,0,0,1.2.79,1.23,1.23,0,0,1,0-.34l-.06,0C273.84,55.58,273.82,55.89,273.84,56.22Z"/><path class="cls-1" d="M293,51.44c-.66,0,.13.69,0,0Z"/><path class="cls-1" d="M291.18,52.42a2,2,0,0,0,.24-.94H291A1.59,1.59,0,0,0,291.18,52.42Z"/><path class="cls-1" d="M230.79,40.07a1,1,0,0,0-.39.31C230.63,40.29,231.08,40.06,230.79,40.07Z"/><path class="cls-1" d="M276.31,51.88l-.11,0C276.07,53.69,276.71,52.14,276.31,51.88Z"/><path class="cls-1" d="M306,46s-.09.08-.17.19S306,46.19,306,46Z"/><path class="cls-1" d="M302.23,55.07c-.26,0,.43,1.2,0,0Z"/><path class="cls-1" d="M292.49,48.45c.23-.6-.8-.46,0,0Z"/><path class="cls-1" d="M179,41.27l1.38-.18C179.64,39.94,179.2,40.33,179,41.27Z"/><path class="cls-1" d="M181.34,43c-.37-.88-.09.33,0,0Z"/><path class="cls-1" d="M305,52c-1.88.36,0,.28,0,0Z"/><path class="cls-1" d="M217.47,52a2.42,2.42,0,0,0-.37,0C217.15,52.34,217.29,52.27,217.47,52Z"/><path class="cls-1" d="M241.75,47.53c-.93,0,0,.28,0,0Z"/><path class="cls-1" d="M165.38,43.79c.68,0,.28,0,0,0,1.09,0,2,0,1.16-.88-1.06,0-2.28-.11-2.79.49C163.86,44,164.75,43.77,165.38,43.79Z"/><path class="cls-1" d="M157.82,44.83c1-.24,2.41,0,2.36-1.34-1.33.19-4.74.41-4.37,1C156.4,44.67,157.86,43.9,157.82,44.83Z"/><path class="cls-1" d="M94.05,50.22c-.09-1.21,2.47.3,2.37-.91l-4,.09C92.06,50.7,93.34,50.14,94.05,50.22Z"/><path class="cls-1" d="M148.28,50.63h0Z"/><path class="cls-1" d="M148.37,50.63h0c2.09-.05-3.22.08-.12,0Z"/><path class="cls-1" d="M206.68,50.51c-5.7-2.17-.64,5.85,0,0Z"/><path class="cls-1" d="M225.47,51.35c.21.62,8.57.22,8,.23-.36-.82-5.86-1.33-6-.71-1.33-.39.43-.86.37-1.3-1.13-.46-.84-.18-.47,0C226.66,49.83,226.32,51.33,225.47,51.35Z"/><path class="cls-1" d="M190.07,54.92c-.1-.19-.2-.27,0,.28.1.1.14.11.15.07.8.28,4.5,1.24,4.23-.6C194,54.38,190.55,54.19,190.07,54.92Z"/><path class="cls-1" d="M235.51,53.68c-1.09.06-.82-.7-1.6,0,1.52,3.09,5.79,4.84,6.81.69.51.63,2.13.72,1.23,1.69,1.32-.09,2.52-2.64,6.33-2.73.59-3.13-10.67,2.29-11.22-1.44.27,1.51-.25,2.1-1.53,1.75Z"/><path class="cls-1" d="M288.21,53.27c.8,0,.54,1.15,1.62.82-1.25-1-.17-.25,0-1.72-.7-.16-2.14.49-1.8.8C287.88,53.16,287.87,53.19,288.21,53.27Z"/><path class="cls-1" d="M195.66,57.21c-1.35-.43-1.36.17-2.81-.36-1.62.09,2.21,1.89,2.46,2.51a1.12,1.12,0,0,0,0-1.71c3.07-.08,6.33-.75,8.69.23-.73.11-1.91,1.62-1.27,2.06-.23,0-.4,0,.22.1.09,0,.11,0,.1,0,.4-.11.28-.75.68-.86,0,.57,0,1.14,0,1.71a6.57,6.57,0,0,0,.33-2.95,4.57,4.57,0,0,1,1.63,1.19c-.1-4.15-.37-5.27.34-2.15.59.07,1.67,1.3,2,2.33a6.67,6.67,0,0,1,.75-2.82c1,5.92-.67-3.21,2,1.23,1.13-1.26-.81-1.32-.47-3,2.92-1.22,2.47,4.18,2.5,4.23,3.56-.08,4.7.13,6.77-1,0,.65,0,1.3,0,2a18,18,0,0,1,2.8.07l0-1.24c2.41-.62,3,3,1.13-2.6a6.57,6.57,0,0,0,1.94-2.62c-1.67-3.1-22.09,1.31-25.14,1-.09-3.74-1.28-2.55-3.64-2.05,0,1.07,2.63.41,2,2.09-1,.08-1.41.44-1.27,1.09C196.77,54.58,195.7,54.45,195.66,57.21Zm27.62,0c-.12-.54.64-.53.35.59-1-1.06-.83.93-2.39.49C221.2,56.55,222.6,56.73,223.28,57.23Z"/><path class="cls-1" d="M208.11,60.34a1.18,1.18,0,0,0,0-1.05A7.38,7.38,0,0,0,208.11,60.34Z"/><path class="cls-1" d="M219.69,60.06c0-.06,0-.12,0-.18C219.49,59.91,219.45,60,219.69,60.06Z"/><path class="cls-1" d="M223.28,57.23a1.14,1.14,0,0,0,.35.59C223.67,57.64,223.52,57.42,223.28,57.23Z"/><path class="cls-1" d="M222.48,60v0C223,60,222.87,60,222.48,60Z"/><path class="cls-1" d="M255.91,55.33c.56-.77.35-1-.81-.84-1.11,1.87-.82,2.87.87,3a.84.84,0,0,0,0-.45c-.13-.57-.68-.68-.43-1.68Z"/><path class="cls-1" d="M262.12,58.61H262C262,58.8,262.18,58.65,262.12,58.61Z"/><path class="cls-1" d="M262.39,59c.58-.38,1.54-.37,1.16-1.74-1,1.09-.24-.59-2,1.33.09.49.41.23.4,0h.14C262.32,58.62,262.37,58.82,262.39,59Z"/><path class="cls-1" d="M1247.38,72c1.56.68,6.67-.26,1.21-.4C1248.12,71.63,1247.46,71.47,1247.38,72Z"/><path class="cls-1" d="M1210.72,69c0-.93,1.42-.16,2-.39.38-.54-3-.77-4.37-1C1208.31,68.9,1209.73,68.71,1210.72,69Z"/><path class="cls-1" d="M1274.48,74.34c.71-.08,2,.48,1.62-.82l-4-.1C1272,74.64,1274.58,73.13,1274.48,74.34Z"/><path class="cls-1" d="M1205.12,94.05c.76,1.07,3.3,3.31-.19-.37C1205,93.92,1205.07,94,1205.12,94.05Z"/><path class="cls-1" d="M1214.51,24.48c.73.44-.32-1.17,0,0Z"/></g></g></svg>