<svg xmlns="http://www.w3.org/2000/svg" width="99.5" height="99.5" viewBox="0 0 99.5 99.5"><defs><style>.cls-1{fill:#ff671d;}.cls-2{fill:#fff;}</style></defs><title>hospital</title><g id="Layer_2" data-name="Layer 2"><g id="ARTWORK"><rect class="cls-1" x="12.66" y="27.71" width="74.98" height="59.91"/><path class="cls-2" d="M85.31,19.7h-9V14.19A14.24,14.24,0,0,0,62.16,0H37.34A14.24,14.24,0,0,0,23.15,14.19V19.7h-9C6.37,19.7,0,25.11,0,32.9V85.31A14.22,14.22,0,0,0,14.19,99.5H85.31A14.22,14.22,0,0,0,99.5,85.31V32.9c0-7.79-6.37-13.2-14.19-13.2ZM30.75,14.19A6.81,6.81,0,0,1,37.34,7.6H62.16a6.8,6.8,0,0,1,6.58,6.59V19.7h-38ZM72.56,69.11H57.35v15.2H42.15V69.11H27v-19h15.2V34.91H57.35v15.2H72.56Z"/></g></g></svg>