<svg xmlns="http://www.w3.org/2000/svg" width="60" height="30" viewBox="0 0 60 30"><defs><style>.cls-1{fill:#1d9ff0;}.cls-2{fill:#fff;}.cls-3{fill:#3b5996;}</style></defs><title>social</title><g id="Layer_2" data-name="Layer 2"><g id="ARTWORK"><rect class="cls-1" x="30.5" y="0.5" width="29" height="29" rx="6.5" ry="6.5"/><path class="cls-2" d="M53,1a6,6,0,0,1,6,6V23a6,6,0,0,1-6,6H37a6,6,0,0,1-6-6V7a6,6,0,0,1,6-6H53m0-1H37a7,7,0,0,0-7,7V23a7,7,0,0,0,7,7H53a7,7,0,0,0,7-7V7a7,7,0,0,0-7-7Z"/><path class="cls-2" d="M41.26,21.81a9.92,9.92,0,0,0,10-10c0-.15,0-.3,0-.45A7.38,7.38,0,0,0,53,9.56a6.87,6.87,0,0,1-2,.55A3.46,3.46,0,0,0,52.5,8.17,7,7,0,0,1,50.28,9a3.51,3.51,0,0,0-6,3.2,10,10,0,0,1-7.23-3.66,3.5,3.5,0,0,0,1.08,4.68,3.52,3.52,0,0,1-1.58-.44v0a3.5,3.5,0,0,0,2.81,3.43,3.6,3.6,0,0,1-.93.13,2.81,2.81,0,0,1-.65-.07,3.5,3.5,0,0,0,3.27,2.44,7,7,0,0,1-4.35,1.5,5.75,5.75,0,0,1-.84-.05,9.87,9.87,0,0,0,5.38,1.58"/><rect class="cls-3" x="0.5" y="0.5" width="29" height="29" rx="6.5" ry="6.5"/><path class="cls-2" d="M23,1a6,6,0,0,1,6,6V23a6,6,0,0,1-6,6H7a6,6,0,0,1-6-6V7A6,6,0,0,1,7,1H23m0-1H7A7,7,0,0,0,0,7V23a7,7,0,0,0,7,7H23a7,7,0,0,0,7-7V7a7,7,0,0,0-7-7Z"/><path id="f" class="cls-2" d="M16.34,23.34v-7.9H19l.4-3.07H16.34v-2c0-.89.25-1.5,1.52-1.5h1.63V6.15A21.2,21.2,0,0,0,17.12,6a3.71,3.71,0,0,0-4,4.07v2.27H10.51v3.07h2.65v7.9Z"/></g></g></svg>